<svg width="145" height="100" viewBox="0 0 145 100" fill="none" xmlns="http://www.w3.org/2000/svg">
<path d="M34.7596 0.767245C35.9213 -0.39449 38.1154 -0.21422 39.046 1.15398C39.67 1.95979 39.7116 3.05682 39.3957 3.99514C41.2585 3.49747 43.1752 3.25249 45.1012 3.19086C48.155 3.23709 51.2118 3.85031 54.0006 5.11681C58.9865 7.3201 63.0557 11.5033 65.1141 16.5539C65.7982 16.4014 66.5101 16.4476 67.1911 16.2766C67.4438 16.8174 67.6117 17.3921 67.8367 17.9421C55.5229 19.6061 43.3817 23.0698 32.3344 28.8183C29.3916 30.3884 26.4903 32.0601 23.7801 34.0107C23.2332 33.0709 22.6924 32.1217 22.2471 31.131C22.8988 30.7119 23.5552 30.3036 24.2192 29.9061C22.5105 23.1869 24.3672 15.708 28.9802 10.5403C30.7798 8.45256 33.0247 6.77313 35.4714 5.51741L35.4699 5.44962C34.6163 4.9612 33.9091 4.10145 33.8891 3.08147C33.7997 2.22789 34.1186 1.34349 34.7596 0.767245ZM32.5964 11.5464C29.4702 13.7898 27.0604 17.0161 25.8186 20.66C24.8463 23.4627 24.5397 26.5103 24.9942 29.4424C35.6656 23.2254 47.5849 19.3303 59.7384 17.3166C56.8079 12.1288 51.1918 8.59893 45.2676 8.08432C40.8132 7.64983 36.2218 8.92558 32.5964 11.5464Z" fill="#C41300"/>
<path d="M117.978 72.3079C120.332 72.1507 122.697 72.2185 125.053 72.0645C126.899 72.0598 128.748 71.9412 130.594 72.0367C131.968 72.1877 133.352 72.462 134.62 73.0305C134.928 73.2154 135.432 73.4203 135.339 73.8687C135.336 73.9396 135.327 74.0813 135.322 74.1522C134.298 74.8008 133.06 74.9411 131.993 75.4957C132.92 76.0627 133.948 76.4587 134.814 77.1274C134.841 77.1474 134.897 77.1875 134.925 77.206C135.706 77.7853 136.561 78.4509 136.808 79.4416C136.934 80.1673 136.375 80.7929 135.814 81.1703C135.151 81.5941 134.429 81.9376 133.872 82.5108C133.957 83.1918 134.412 83.7357 134.775 84.2919C135.177 84.9036 135.8 85.3304 136.204 85.9405C136.401 86.5029 136.282 87.3688 135.573 87.4844C133.162 88.0668 130.685 88.301 128.23 88.6369C116.872 90.0005 105.479 91.0482 94.0914 92.1313C82.3847 93.2361 70.6703 94.2406 58.9713 95.4178C54.5817 95.5503 50.172 95.5457 45.8132 94.9417C44.7116 94.595 43.3603 94.7136 42.4913 93.8524C43.2432 93.0619 44.0845 92.3116 44.5744 91.3193C44.6515 91.0127 44.8179 90.6291 44.5513 90.3656C44.1415 89.9404 43.4959 89.925 42.9443 89.9157C41.7826 89.928 40.6424 89.606 39.5762 89.1669C38.5023 88.7201 37.4484 88.187 36.5548 87.4335C36.1526 87.0761 35.749 86.6447 35.6611 86.0946C35.6704 85.6524 36.0725 85.352 36.4469 85.1964C37.9322 84.5893 39.4884 84.1225 40.8812 83.3059C41.3542 83.0378 41.7379 82.6279 41.9459 82.1225C41.7934 81.8051 41.6501 81.4631 41.3604 81.2443C40.647 80.6665 39.8751 80.1303 39.3374 79.3738C39.134 79.0949 39.04 78.7113 39.1864 78.3877C39.7241 77.8207 40.5731 77.9286 41.2618 77.7083C42.9551 77.2291 44.462 76.2908 46.0382 75.5358C46.8409 75.1075 47.7268 74.8332 48.6451 74.864C50.9624 74.9072 53.2643 74.6237 55.5678 74.4218C63.7816 73.6684 71.9954 72.7994 80.2446 72.5852C82.0827 72.5051 83.9286 72.4928 85.7652 72.6006C94.8048 72.7701 103.844 72.6469 112.881 72.4512C114.577 72.3418 116.278 72.3572 117.978 72.3079ZM127.261 73.8564C126.323 74.6683 125.458 75.5651 124.628 76.4864C123.941 76.7021 123.21 76.7098 122.518 76.9024C122.306 76.9517 122.136 77.0673 122.012 77.2522C122.668 77.34 123.337 77.2768 123.985 77.149C123.096 78.1859 122.187 79.2074 121.411 80.3322C120.201 81.3706 119.021 82.4492 117.808 83.4861C117.038 84.124 116.309 84.8189 115.445 85.3319C115.423 84.2781 115.935 83.3105 116.419 82.4045C117.015 81.3429 117.68 80.3152 118.465 79.3831C118.908 78.8376 119.523 78.4709 119.998 77.9548C119.962 77.8685 119.891 77.6975 119.856 77.6112C118.955 77.5526 117.85 77.5357 117.207 78.283C115.238 80.363 113.266 82.4415 111.232 84.4568C110.73 84.8851 110.316 85.4598 109.673 85.6879C109.641 84.6263 110.128 83.6525 110.645 82.7604C111.524 81.2967 112.648 79.984 113.95 78.8808C114.235 78.5803 114.695 78.3615 114.727 77.9024C114.194 77.8593 113.656 77.8392 113.128 77.9163C112.527 78.0226 112.031 78.4093 111.579 78.7976C110.434 79.8237 109.387 80.9762 108.596 82.2997C108.069 83.1934 107.562 84.1425 107.479 85.1964C107.374 85.9806 107.954 86.7803 108.729 86.9343C109.473 86.9852 110.174 86.6 110.709 86.11C111.776 85.1393 112.787 84.107 113.792 83.0732C113.434 83.9684 113.091 85.03 113.604 85.939C113.816 86.3766 114.286 86.5584 114.736 86.6447C115.215 86.5368 115.701 86.412 116.109 86.127C117.855 84.9452 119.078 83.1918 120.54 81.7096C120.058 82.6063 119.499 83.5493 119.557 84.6063C119.525 85.2642 120.059 85.9683 120.751 85.9575C121.44 85.9837 122.001 85.5168 122.505 85.107C124.434 83.5 126.395 81.9238 128.167 80.1396C128.621 79.6589 129.178 79.2475 129.487 78.6481C129.008 78.8792 128.618 79.2444 128.207 79.5726C126.4 80.9932 124.595 82.4184 122.784 83.8328C122.315 84.1918 121.893 84.6294 121.343 84.8651C121.582 83.8035 122.226 82.8991 122.748 81.9638C123.676 80.4169 124.719 78.9378 125.91 77.5819C126.184 77.2799 126.487 76.9425 126.93 76.9209C128.233 76.7145 129.56 76.6159 130.851 76.3431C130.846 76.2723 130.837 76.1305 130.834 76.0596C129.597 76.1506 128.36 76.2353 127.118 76.243C127.691 75.6144 128.282 74.9981 128.917 74.4295C129.192 74.1568 129.665 74.0166 129.694 73.5744C128.9 73.4018 127.903 73.2231 127.261 73.8564ZM73.2973 76.9117C72.228 77.0611 71.1418 76.9548 70.0694 77.0704C68.6766 76.9656 67.2791 76.9841 65.8847 76.9425C63.6968 76.7715 61.4951 76.8208 59.3118 77.0226C56.9976 77.3369 54.6664 78.1566 52.9207 79.7529C52.1442 80.5371 51.4308 81.5802 51.5202 82.7327C51.6265 83.5909 52.4847 84.0993 53.2782 84.1949C55.1225 84.409 56.9221 83.7311 58.5414 82.9145C58.5414 82.8513 58.5399 82.725 58.5399 82.6618C58.5137 82.6942 58.4598 82.7558 58.4336 82.7866C57.5107 83.1148 56.5708 83.483 55.5739 83.4615C54.802 83.4938 53.9654 83.312 53.4107 82.7388C52.8098 82.1148 52.8807 81.0656 53.3876 80.4077C53.8529 79.7143 54.6556 79.3553 55.4353 79.1443C57.2919 78.6605 59.2255 78.8669 61.1176 78.7067C61.8294 78.6882 62.5397 78.6682 63.2515 78.6296C61.3318 80.3507 60.0822 82.6341 58.6308 84.728C57.2426 86.7233 55.6417 88.6246 53.6141 89.9958C52.8838 90.4688 52.1195 90.9265 51.2737 91.1514C50.3538 91.3825 49.6759 90.4858 48.7807 90.4935C47.958 90.4642 46.9549 90.4226 46.371 91.116C46.0813 91.4457 46.2523 91.9695 46.6329 92.1483C47.8439 92.8231 49.3061 92.5288 50.5757 92.1914C54.0917 91.2392 57.5107 89.3919 59.7263 86.4321C61.6784 83.8944 63.2531 81.0779 65.3532 78.6512C67.7537 78.5988 70.1896 78.5742 72.5254 77.9455C73.8273 77.5942 75.0091 76.924 76.2556 76.4263C76.271 76.3647 76.3049 76.2399 76.3203 76.1783C75.3327 76.4988 74.3142 76.7083 73.2973 76.9117ZM84.4755 76.9672C82.6574 79.1073 80.8209 81.232 79.0212 83.389C78.7331 83.7866 78.2385 83.9299 77.8765 84.2442C75.7425 85.9483 73.5253 87.5645 71.1557 88.925C71.1695 87.922 71.8243 87.0915 72.4453 86.3643C73.4545 85.2719 74.5654 84.2796 75.5807 83.1934C75.5622 83.1055 75.5253 82.9299 75.5052 82.8421C75.0122 82.7727 74.5145 82.7804 74.0199 82.8159C73.8828 82.3043 73.5546 81.8514 73.0631 81.631C71.9461 81.0995 70.6441 80.9608 69.4331 81.1935C67.0649 81.7851 64.9264 83.1225 63.1761 84.8019C62.1222 85.8096 61.207 87.0946 61.0775 88.5876C61.0298 89.5136 61.2686 90.626 62.1576 91.0975C62.9788 91.4796 63.9603 91.3471 64.7569 90.9619C66.672 90.0898 68.0865 88.4828 69.6858 87.1701C69.3252 87.8449 69.2528 88.6369 69.3946 89.3826C69.5933 89.9758 70.2127 90.3286 70.8259 90.2716C71.5362 90.3456 72.1602 89.9465 72.6779 89.5059C74.2772 88.1053 75.9027 86.734 77.4466 85.2703C76.556 86.3103 75.687 87.3704 74.8704 88.4705C74.5299 88.9543 74.1262 89.5105 74.2849 90.1407C74.4529 90.5983 74.9752 91.042 75.4806 90.8032C76.1939 90.3502 76.4697 89.4997 76.9443 88.8403C77.895 87.4829 78.9057 86.164 80.0351 84.9498C80.0212 85.9729 79.9627 87.0314 80.317 88.0098C80.5327 88.6215 81.0951 89.1684 81.7777 89.15C82.4695 89.2178 83.0919 88.8433 83.6466 88.4797C85.0163 87.4906 86.3075 86.3997 87.5463 85.2534C87.3783 85.8897 87.2797 86.5584 87.3999 87.2132C87.6495 88.0314 88.4461 88.6893 89.3166 88.6877C90.466 88.7555 91.5199 88.187 92.4767 87.6169C94.492 86.3365 96.21 84.6617 98.0235 83.1225C97.5967 84.107 97.1098 85.258 97.5828 86.3134C98.159 87.3396 99.5011 87.583 100.58 87.4243C102.187 87.13 103.536 86.1177 104.75 85.0808C105.968 84.0808 106.998 82.8637 107.823 81.5232C108.271 80.7867 108.661 79.9516 108.544 79.0641C108.508 78.3508 107.887 77.8269 107.234 77.6574C106.425 77.491 105.578 77.548 104.764 77.6497C102.596 78.1227 100.785 79.5787 99.3377 81.2027C98.9263 81.6249 98.7076 82.2258 98.1899 82.5385C97.0035 83.312 95.8202 84.0901 94.6353 84.8636C93.3858 85.6678 92.1624 86.5414 90.7711 87.0884C90.4938 87.1809 90.2026 87.298 89.9052 87.2394C89.6047 87.0098 89.6864 86.5985 89.6941 86.2733C89.7188 85.8404 89.879 85.4336 90.0593 85.0454C92.5938 84.3489 95.1068 83.3351 97.1668 81.6665C97.5936 81.2736 98.1914 80.7759 97.9957 80.1226C97.6491 79.4724 96.8355 79.3338 96.1884 79.1489C94.717 78.8299 93.3349 79.5849 92.1146 80.3106C90.7264 81.1888 89.3336 82.1626 88.3983 83.5416C88.1472 83.8929 87.99 84.3366 87.6048 84.5693C86.4477 85.3643 85.2706 86.1285 84.0904 86.8881C83.585 87.2086 83.0858 87.5506 82.5249 87.7694C82.3339 87.3503 82.1675 86.9097 82.1505 86.4444C82.1259 85.7541 81.8994 85.0392 82.1413 84.3659C83.773 84.5261 85.5957 84.2072 86.7744 82.9807C87.0964 82.6818 87.2058 82.2011 87.0502 81.7928C86.7651 81.383 86.2628 81.215 85.7867 81.1657C84.6681 81.0825 83.565 81.4092 82.582 81.9222C83.9933 80.3861 85.3569 78.8007 86.8529 77.3431C87.0317 77.2183 86.9824 76.924 86.7867 76.8501C86.2274 76.6097 85.6034 76.6082 85.0071 76.6405C84.7729 76.6236 84.6204 76.8131 84.4755 76.9672Z" fill="#C41300"/>
<path d="M102.478 80.1812C103.407 79.2598 104.488 78.3723 105.803 78.1104C106.188 78.0102 106.743 78.1535 106.829 78.5957C106.901 79.2151 106.579 79.7898 106.308 80.3229C105.471 81.7913 104.33 83.0547 103.173 84.275C102.193 85.2287 101.2 86.2549 99.9385 86.8265C99.4609 87.0098 99.3561 86.4937 99.3037 86.1516C99.6242 83.8651 100.898 81.819 102.478 80.1812Z" fill="#C41300"/>
<path d="M95.2526 80.0271C95.6008 79.8669 95.9875 79.833 96.3681 79.8699C96.2772 80.3799 95.8828 80.7466 95.5161 81.0779C94.4483 82.007 93.2558 82.7866 92.0093 83.4537C91.5563 83.6895 91.1126 83.9653 90.6118 84.0916C91.1295 83.1379 91.9353 82.3906 92.7627 81.7081C93.5316 81.0671 94.3251 80.4246 95.2526 80.0271Z" fill="#C41300"/>
<path d="M67.6625 83.4229C68.7472 82.6556 69.9459 81.9315 71.2925 81.7789C71.8287 81.7158 72.2786 82.0979 72.4465 82.5863C72.1661 83.5108 71.4296 84.1764 70.7425 84.8081C69.4313 85.9359 68.0615 86.9944 66.6841 88.0391C65.829 88.6631 64.9816 89.3117 64.0417 89.8063C63.7905 89.9635 63.4916 89.9465 63.2128 89.8941C63.145 89.2824 63.3314 88.6893 63.5887 88.1423C64.47 86.2271 65.9969 84.6802 67.6625 83.4229Z" fill="#C41300"/>
<path d="M83.4676 82.2951C83.956 82.0979 84.466 81.8252 85.0084 81.9192C85.3812 82.0732 85.241 82.5401 84.9668 82.7188C83.9175 83.5816 82.4939 83.5431 81.2212 83.7249C81.8236 83.0485 82.6726 82.6864 83.4676 82.2951Z" fill="#C41300"/>
<path d="M32.5964 11.5464C36.2218 8.9256 40.8133 7.64985 45.2676 8.08435C51.1918 8.59896 56.8079 12.1288 59.7384 17.3166C47.5849 19.3304 35.6656 23.2254 24.9943 29.4424C24.5397 26.5103 24.8464 23.4627 25.8186 20.66C27.0604 17.0161 29.4702 13.7898 32.5964 11.5464Z" fill="#F7F7F7"/>
<path d="M75.151 20.3657C76.3358 20.2009 77.5453 20.3257 78.724 20.1423L78.7995 20.2332C81.5236 19.979 84.2738 20.2132 87.0056 20.2825C90.5078 20.4936 94.0068 20.8357 97.4643 21.4412C97.774 21.4797 98.0868 21.5121 98.3903 21.5953C98.6076 21.6292 98.8279 21.6615 99.0467 21.697C99.3872 21.7817 99.74 21.8156 100.084 21.9034C100.338 21.9496 100.595 21.9959 100.849 22.0621C101.279 22.1253 101.698 22.2378 102.127 22.3148C102.418 22.3903 102.718 22.4427 103.01 22.5305C103.174 22.5598 103.341 22.5891 103.509 22.6183C103.757 22.6907 104.013 22.7493 104.262 22.8233C104.677 22.9034 105.086 23.0051 105.489 23.1391C105.652 23.1715 105.815 23.2007 105.982 23.2316C106.179 23.2978 106.382 23.3517 106.587 23.4057C107.15 23.5659 107.717 23.7107 108.282 23.8679C108.818 24.0066 109.336 24.2176 109.884 24.3116L109.889 24.3902C110.276 24.4411 110.647 24.572 111.008 24.7215C111.1 24.7415 111.288 24.7785 111.382 24.7985C111.929 25.1406 112.573 25.1406 113.166 25.3362L113.077 25.555C112.411 25.2654 111.735 24.9726 111.02 24.8355C110.809 24.7523 110.587 24.723 110.368 24.6984L110.371 24.5967C110.132 24.5936 109.898 24.5813 109.679 24.4888C109.47 24.438 109.265 24.3933 109.062 24.3378C108.849 24.2885 108.639 24.2438 108.433 24.1853C107.972 24.0759 107.509 23.9819 107.051 23.8633C106.026 23.6476 104.999 23.455 103.976 23.2393C103.444 23.1853 102.928 23.0467 102.398 22.9866C101.697 22.8325 100.979 22.777 100.279 22.626C99.9573 22.5891 99.6352 22.5613 99.3148 22.5228C98.9619 22.4227 98.5952 22.4103 98.2347 22.3749C97.7432 22.2362 97.224 22.2932 96.7324 22.1607C95.7972 22.0945 94.8712 21.9466 93.9344 21.8988C93.2827 21.7493 92.6048 21.851 91.953 21.7093C91.1349 21.6353 90.3121 21.66 89.4986 21.5552C88.0518 21.4443 86.5958 21.5213 85.1505 21.3888C83.5143 21.3934 81.8718 21.3164 80.2432 21.4412C78.1247 21.452 76.0138 21.5814 73.8999 21.7093C73.2482 21.851 72.5718 21.7509 71.9216 21.9003C71.4501 21.9496 70.9755 21.9666 70.5041 22.0128C70.0095 22.1438 69.4856 22.0683 68.9941 22.2085C68.535 22.2701 68.0635 22.2532 67.6151 22.3764C67.2531 22.4103 66.8864 22.418 66.5366 22.5213C66.2146 22.5582 65.8926 22.586 65.5721 22.6214C65.1823 22.7354 64.7694 22.7169 64.3811 22.8371C64.1099 22.8695 63.8387 22.8972 63.5691 22.9296C63.2255 23.0282 62.8665 23.0405 62.526 23.1407C62.2595 23.1792 61.9929 23.2069 61.7263 23.2423C61.1285 23.398 60.5107 23.4565 59.9129 23.6137C59.6509 23.6506 59.3906 23.6907 59.1363 23.76C58.4553 23.8833 57.7835 24.0512 57.1025 24.176C56.4338 24.344 55.7605 24.4904 55.0857 24.6336C54.8823 24.6922 54.6774 24.7415 54.4724 24.7862C54.0626 24.8971 53.6528 25.005 53.2398 25.0959C53.0364 25.156 52.8315 25.2068 52.6281 25.2623C52.4263 25.3177 52.2214 25.364 52.018 25.4133C51.4572 25.5797 50.8886 25.7183 50.3278 25.8817C49.2939 26.1729 48.2647 26.4841 47.2355 26.7907C45.65 27.3007 44.0615 27.8092 42.4976 28.3839C42.2711 28.4594 42.0477 28.541 41.8228 28.6181C41.6348 28.6905 41.4453 28.7583 41.2573 28.8322C41.1048 28.8877 40.9538 28.9447 40.8043 29.0032C40.544 29.0926 40.2866 29.1928 40.0324 29.2991C39.8106 29.3807 39.5887 29.4639 39.3668 29.5441C39.1773 29.6257 38.9862 29.7028 38.7983 29.7844C38.4716 29.9 38.1527 30.0371 37.8307 30.1634C37.5795 30.2744 37.3268 30.3838 37.0695 30.4793C36.7737 30.6056 36.4763 30.732 36.1805 30.8583C35.8184 31.0047 35.461 31.1634 35.1035 31.3236C33.7538 31.8891 32.4534 32.5747 31.0898 33.1094C31.4797 32.9075 31.8679 32.7042 32.2439 32.4777C32.3825 32.4052 32.5212 32.3313 32.6599 32.2589C32.7955 32.1788 32.9311 32.0986 33.0666 32.0185C34.0851 31.4854 35.1143 30.9754 36.1512 30.4808C36.7167 30.2251 37.276 29.9524 37.8415 29.695C37.9216 29.6612 38.0787 29.5949 38.1573 29.561C38.5117 29.4008 38.8645 29.239 39.2174 29.0757C39.903 28.7983 40.5748 28.4856 41.2666 28.2205C44.4313 26.914 47.6731 25.8015 50.941 24.7846C51.0288 24.7646 51.2029 24.723 51.2908 24.7014C51.528 24.6213 51.7699 24.5489 52.0088 24.4642C52.0966 24.4457 52.2722 24.4072 52.3616 24.3887C52.602 24.3085 52.8469 24.2408 53.0873 24.1576C53.1751 24.1375 53.3523 24.0975 53.4401 24.0774C53.6805 24.0019 53.927 23.9372 54.1689 23.8617C54.4956 23.7816 54.8191 23.6876 55.1488 23.6121C55.5541 23.4981 55.9624 23.3949 56.3737 23.2993C56.8668 23.1653 57.3706 23.0682 57.8621 22.9203C58.0285 22.8926 58.1965 22.8633 58.3644 22.834C58.5678 22.7585 58.7789 22.7185 58.9915 22.68C59.2426 22.6106 59.4984 22.5629 59.7542 22.5182C60.0469 22.435 60.3474 22.3872 60.6432 22.3133C61.1578 22.2147 61.6724 22.1176 62.1855 22.0051C62.4012 21.9697 62.6184 21.9373 62.8357 21.8988C63.3965 21.7709 63.9682 21.6846 64.5382 21.5953C64.8849 21.5028 65.2424 21.4813 65.5967 21.4335C67.5412 21.0991 69.5026 20.8403 71.4701 20.6754C72.6904 20.5214 73.9199 20.4227 75.151 20.3657Z" fill="#F7F7F7"/>
<path d="M83.1337 24.7831C84.451 24.4642 86.0565 24.324 87.1428 25.2977C87.8222 25.9202 87.8269 26.914 87.6682 27.7552C87.6081 27.9093 87.5495 28.0634 87.4956 28.2206C86.4124 30.675 84.0504 32.416 81.519 33.1602C80.1292 33.5978 78.6562 33.3667 77.2742 33.0262C78.0862 33.5932 79.026 33.9383 79.9782 34.1833C80.0059 34.2141 80.063 34.2757 80.0907 34.3081C80.8534 36.1231 81.596 37.9489 82.3541 39.7686C82.6068 40.3433 82.8055 40.9411 83.1044 41.4942C82.163 41.9795 81.1939 42.4017 80.2401 42.8609C79.2494 43.2969 78.3003 43.8331 77.2834 44.2106C77.2064 44.2429 77.0523 44.3092 76.9753 44.3431C76.5485 44.6528 76.0462 44.8284 75.5408 44.9625L75.5239 45.1088C75.4499 45.0965 75.3051 45.0703 75.2311 45.058L75.2111 45.2568C75.1541 45.2506 75.0401 45.2383 74.9831 45.2336C74.8506 45.4201 74.5578 45.4786 74.3714 45.3523C74.2743 45.1751 74.188 44.9948 74.1048 44.813C74.0232 44.679 73.9431 44.5465 73.8629 44.414C73.6657 44.0334 73.4716 43.6497 73.2189 43.3046C73.2204 43.2491 73.2235 43.1367 73.2251 43.0812L73.0956 43.0627C72.9077 42.6652 72.7058 42.2738 72.4485 41.9179C72.4501 41.8625 72.4516 41.7531 72.4531 41.6976L72.3237 41.6776C72.2051 41.4326 72.0803 41.1907 71.9586 40.9488C71.8661 40.8117 71.7752 40.6761 71.6843 40.5405C71.6766 40.4958 71.6612 40.408 71.655 40.3633C71.3962 40.0135 71.1882 39.6314 71.0187 39.2324L70.8923 39.1969C70.8939 39.1399 70.8954 39.0274 70.8954 38.9704C70.7768 38.8194 70.6643 38.6685 70.5472 38.519C70.9324 38.1415 71.3084 37.7532 71.635 37.3234C72.0818 36.5006 72.7397 35.6979 72.5795 34.6902C72.1373 36.4297 70.7629 37.764 69.31 38.7239C67.6105 39.7778 65.6014 40.5158 63.5753 40.2847C62.4906 40.1661 61.3797 39.4928 61.0993 38.3819C60.7957 37.043 61.4151 35.7056 62.1778 34.6378C63.8372 32.4114 66.3594 30.8013 69.1035 30.3329C69.2807 30.3299 69.4178 30.259 69.5103 30.1219C70.8769 28.0079 73.0525 26.4702 75.4361 25.7091C76.9291 25.2592 78.6886 25.0589 80.063 25.9495C80.2956 26.1482 80.5545 25.9248 80.7671 25.8108C81.502 25.3578 82.3078 25.0327 83.1337 24.7831Z" fill="#F7F7F7"/>
<path d="M85.7758 31.5794C87.0376 30.4562 88.1978 29.011 88.4012 27.2807C88.4058 27.3439 88.4151 27.4702 88.4197 27.5349C88.4536 27.9155 88.3011 28.2776 88.2102 28.6397C88.1639 28.7999 88.1162 28.9601 88.0669 29.1188C87.9852 29.2883 87.9036 29.4578 87.8265 29.6288C86.5446 31.9862 84.1888 33.6579 81.6327 34.3805C81.3938 34.4345 81.1566 34.4961 80.927 34.5793L80.8946 34.5007C80.8268 34.3358 80.7606 34.171 80.6943 34.0077C82.5741 33.7041 84.3352 32.8151 85.7758 31.5794Z" fill="#F7F7F7"/>
<path d="M60.3997 38.0383C60.4752 38.6993 60.6925 39.3664 61.1871 39.8363C61.9867 40.7146 63.2193 40.9673 64.3564 41.0104C66.4102 40.9472 68.387 40.1645 70.068 39.0105C71.3792 41.3879 72.7166 43.753 74.0262 46.1334C74.0925 46.3199 74.2681 46.4246 74.4469 46.2983C77.5392 44.8731 80.6114 43.4017 83.7007 41.9703C83.7099 42.1352 84.0335 42.3986 83.7638 42.5003C83.6221 42.5789 83.4773 42.6528 83.3309 42.7206C83.1167 42.81 82.9072 42.9055 82.6992 43.0057C82.1399 43.2753 81.576 43.5311 81.0167 43.8007C80.2802 44.1289 79.5653 44.5002 78.8257 44.8222C78.0199 45.2182 77.1986 45.5818 76.3897 45.9716C75.6533 46.2998 74.9353 46.6696 74.1926 46.9855C74.0863 46.7883 73.9831 46.591 73.8752 46.3969C72.8368 44.5541 71.8168 42.7037 70.7829 40.8594C70.5533 40.4419 70.3176 40.0274 70.0942 39.6052C69.5549 39.8903 69.0603 40.2539 68.4995 40.4958C68.3547 40.5667 68.2114 40.6406 68.0696 40.7146C67.8539 40.7947 67.6398 40.881 67.4256 40.9642C66.1052 41.4772 64.6676 41.6745 63.2609 41.4911C62.2964 41.2708 61.3088 40.8086 60.8111 39.9072C60.4552 39.351 60.3828 38.6823 60.3997 38.0383Z" fill="#F7F7F7"/>
<path d="M17.9517 42.0396C18.8099 41.0258 19.7559 40.0921 20.722 39.183C19.3014 40.8733 17.8377 42.5373 16.5573 44.3415C16.3 44.7005 16.0427 45.061 15.7885 45.4231C14.2739 47.6264 12.9334 49.9545 11.8549 52.4043C11.7286 52.7017 11.6038 53.0006 11.4743 53.298C11.2941 53.7756 11.0938 54.2455 10.9382 54.7339C10.8657 54.9235 10.7995 55.1161 10.7271 55.3071C10.5761 55.8233 10.4143 56.3348 10.2618 56.8494C10.214 57.0543 10.1632 57.2577 10.0938 57.458C10.0645 57.6229 10.0337 57.7893 10.0029 57.9541C9.90739 58.2453 9.86733 58.5504 9.78875 58.8478C9.7564 59.065 9.72558 59.2807 9.69168 59.498C9.56072 59.894 9.58075 60.3146 9.5299 60.7244C9.31574 61.937 9.40048 63.1835 9.38353 64.4115C9.41897 65.1202 9.37121 65.8459 9.53761 66.5423C9.58229 66.9044 9.56842 67.2788 9.6886 67.6286C9.72558 67.8412 9.7564 68.0569 9.78721 68.2742C9.93667 68.8951 10.0877 69.516 10.2525 70.1323C10.4482 70.7517 10.6423 71.3711 10.8642 71.9812C10.9705 72.2355 11.0737 72.4912 11.1693 72.7516C11.5221 73.5759 11.8888 74.3956 12.3156 75.1845C15.0289 80.2844 19.1674 84.4799 23.7126 87.9774C26.9297 90.4596 30.398 92.5997 33.9941 94.4856C34.196 94.5873 34.3963 94.6874 34.5981 94.7907C34.6705 94.8323 34.8169 94.9155 34.8893 94.9571C35.0973 95.0588 35.3053 95.1635 35.5102 95.2745C35.7922 95.4085 36.0757 95.541 36.3638 95.6612C36.5687 95.7814 36.7736 95.9 36.977 96.0217C37.3068 96.014 37.5671 96.2205 37.8568 96.3438C38.2589 96.4578 38.658 96.6226 38.9631 96.9169C39.6348 96.9832 40.1325 97.5024 40.7935 97.6041C40.983 97.5949 41.1294 97.6981 41.2526 97.8306C41.3574 97.8645 41.567 97.9338 41.6717 97.9677C41.7133 97.9985 41.795 98.0617 41.835 98.0925C41.2835 97.9169 40.718 97.7674 40.2049 97.4932C39.9368 97.3298 39.5794 97.3468 39.3868 97.0679C38.9954 97.0001 38.5317 96.9539 38.3098 96.5733C37.5918 96.6041 37.0664 96.0618 36.4285 95.8461L36.4008 95.7059C36.3284 95.7213 36.1835 95.749 36.1111 95.7629L36.0926 95.6165C35.6643 95.4994 35.2776 95.2791 34.877 95.1004C32.0635 93.7769 29.3071 92.3301 26.6508 90.7154C26.3612 90.5397 26.0761 90.3579 25.788 90.1807C25.5076 89.9989 25.2256 89.8233 24.9468 89.6399C24.4815 89.3379 24.0208 89.0313 23.5647 88.717C18.3338 85.1132 13.4743 80.6295 10.6161 74.8717C10.5129 74.6637 10.4128 74.4542 10.3172 74.2446C10.0584 73.7084 9.83189 73.1584 9.61619 72.6052C9.48522 72.2247 9.34347 71.8503 9.22329 71.4682C9.10774 71.1138 8.99834 70.7563 8.91052 70.3943C8.83964 70.1508 8.78109 69.9027 8.71022 69.6593C8.67324 69.4513 8.63626 69.2433 8.59158 69.0384C8.52071 68.7765 8.49143 68.5053 8.45137 68.2387C8.12473 66.6271 8.14322 64.9754 8.17249 63.3376C8.19869 62.826 8.17095 62.3068 8.29421 61.806C8.34814 61.1312 8.44059 60.4563 8.59312 59.7969C8.63318 59.5812 8.66708 59.3655 8.70097 59.1498C8.86892 58.4949 9.00913 57.8324 9.21559 57.1884C9.36812 56.5952 9.58537 56.0236 9.7718 55.4412C9.84576 55.2501 9.91664 55.0606 9.99213 54.8711C11.8025 50.1394 14.616 45.8345 17.9517 42.0396Z" fill="#F7F7F7"/>
<path d="M127.261 73.8564C127.903 73.2231 128.9 73.4018 129.694 73.5744C129.664 74.0166 129.191 74.1568 128.917 74.4295C128.282 74.9981 127.691 75.6144 127.118 76.243C128.359 76.2353 129.597 76.1505 130.834 76.0596C130.837 76.1305 130.846 76.2723 130.851 76.3431C129.56 76.6159 128.233 76.7145 126.93 76.9209C126.487 76.9425 126.184 77.2799 125.91 77.5819C124.719 78.9378 123.676 80.4169 122.748 81.9638C122.226 82.8991 121.582 83.8035 121.343 84.8651C121.893 84.6294 122.315 84.1918 122.783 83.8328C124.595 82.4184 126.4 80.9932 128.207 79.5726C128.618 79.2444 129.008 78.8792 129.487 78.6481C129.178 79.2475 128.621 79.6589 128.167 80.1396C126.395 81.9238 124.434 83.5 122.505 85.107C122.001 85.5168 121.44 85.9837 120.751 85.9575C120.059 85.9683 119.525 85.2642 119.557 84.6063C119.499 83.5493 120.058 82.6063 120.54 81.7096C119.078 83.1918 117.855 84.9452 116.109 86.127C115.701 86.412 115.215 86.5368 114.736 86.6447C114.286 86.5584 113.816 86.3766 113.604 85.939C113.091 85.03 113.434 83.9684 113.792 83.0732C112.787 84.107 111.776 85.1393 110.709 86.11C110.174 86.6 109.473 86.9852 108.729 86.9343C107.954 86.7803 107.374 85.9806 107.479 85.1964C107.562 84.1425 108.069 83.1934 108.596 82.2997C109.387 80.9762 110.434 79.8237 111.579 78.7976C112.03 78.4093 112.527 78.0226 113.127 77.9163C113.656 77.8392 114.194 77.8593 114.727 77.9024C114.694 78.3615 114.235 78.5803 113.95 78.8808C112.648 79.984 111.524 81.2967 110.645 82.7604C110.128 83.6525 109.641 84.6263 109.673 85.6879C110.316 85.4598 110.73 84.8851 111.232 84.4568C113.266 82.4415 115.238 80.363 117.207 78.283C117.85 77.5357 118.955 77.5526 119.856 77.6112C119.891 77.6975 119.962 77.8685 119.998 77.9548C119.523 78.4709 118.908 78.8376 118.465 79.3831C117.68 80.3152 117.015 81.3429 116.419 82.4045C115.935 83.3105 115.423 84.2781 115.445 85.3319C116.309 84.8189 117.038 84.124 117.808 83.4861C119.021 82.4492 120.201 81.3706 121.411 80.3322C122.187 79.2074 123.096 78.1859 123.985 77.149C123.337 77.2768 122.668 77.34 122.012 77.2522C122.136 77.0673 122.306 76.9517 122.518 76.9024C123.21 76.7098 123.941 76.7021 124.628 76.4864C125.458 75.5651 126.323 74.6683 127.261 73.8564Z" fill="#F7F7F7"/>
<path d="M135.339 73.8687C135.607 73.9612 135.882 74.0382 136.157 74.1183C136.313 74.1645 136.47 74.2138 136.627 74.2647C136.775 74.3202 136.925 74.3772 137.074 74.4373C137.154 74.4727 137.314 74.5436 137.393 74.5775C137.683 74.7654 138.117 74.9411 138.12 75.3463C138.128 75.5528 137.949 75.6668 137.821 75.79C137.681 75.8594 137.544 75.9318 137.41 76.0057C136.726 76.2369 136.04 76.4664 135.355 76.6898C135.142 76.7992 134.808 76.8131 134.814 77.1274C133.948 76.4587 132.92 76.0628 131.993 75.4958C133.06 74.9411 134.298 74.8009 135.322 74.1522C135.327 74.0813 135.336 73.9396 135.339 73.8687Z" fill="#F7F7F7"/>
<path d="M73.2971 76.9117C74.314 76.7083 75.3324 76.4988 76.32 76.1783C76.3046 76.2399 76.2707 76.3647 76.2553 76.4263C75.0089 76.924 73.8271 77.5942 72.5251 77.9455C70.1894 78.5742 67.7534 78.5988 65.3529 78.6512C63.2528 81.0779 61.6782 83.8944 59.726 86.4321C57.5104 89.3919 54.0915 91.2392 50.5755 92.1914C49.3059 92.5288 47.8437 92.8231 46.6326 92.1483C46.2521 91.9695 46.0811 91.4457 46.3707 91.116C46.9547 90.4226 47.9577 90.4642 48.7805 90.4935C49.6757 90.4858 50.3536 91.3825 51.2734 91.1514C52.1193 90.9265 52.8835 90.4688 53.6138 89.9958C55.6415 88.6246 57.2423 86.7233 58.6306 84.728C60.082 82.6341 61.3315 80.3507 63.2513 78.6296C62.5395 78.6682 61.8292 78.6882 61.1173 78.7067C59.2253 78.8669 57.2916 78.6605 55.435 79.1443C54.6554 79.3553 53.8527 79.7143 53.3873 80.4077C52.8804 81.0656 52.8096 82.1148 53.4105 82.7388C53.9651 83.312 54.8018 83.4938 55.5737 83.4615C56.5706 83.483 57.5104 83.1148 58.4333 82.7866C58.4595 82.7558 58.5135 82.6942 58.5397 82.6618C58.5397 82.725 58.5412 82.8513 58.5412 82.9145C56.9219 83.7311 55.1222 84.409 53.2779 84.1949C52.4845 84.0993 51.6263 83.5909 51.5199 82.7327C51.4306 81.5802 52.144 80.5371 52.9205 79.7529C54.6662 78.1566 56.9973 77.3369 59.3116 77.0226C61.4948 76.8208 63.6966 76.7715 65.8845 76.9425C67.2789 76.9841 68.6763 76.9656 70.0692 77.0704C71.1415 76.9548 72.2278 77.0611 73.2971 76.9117Z" fill="#F7F7F7"/>
<path d="M84.4756 76.9671C84.6204 76.8131 84.7729 76.6236 85.0071 76.6405C85.6034 76.6081 86.2274 76.6097 86.7867 76.85C86.9824 76.924 87.0317 77.2183 86.8529 77.3431C85.3569 78.8006 83.9933 80.3861 82.582 81.9222C83.565 81.4092 84.6682 81.0825 85.7867 81.1657C86.2628 81.215 86.7651 81.383 87.0502 81.7928C87.2058 82.2011 87.0964 82.6818 86.7744 82.9807C85.5957 84.2072 83.773 84.5261 82.1413 84.3659C81.8994 85.0392 82.1259 85.7541 82.1505 86.4444C82.1675 86.9097 82.3339 87.3503 82.525 87.7694C83.0858 87.5506 83.585 87.2086 84.0904 86.8881C85.2706 86.1285 86.4477 85.3643 87.6048 84.5693C87.99 84.3366 88.1472 83.8929 88.3983 83.5416C89.3336 82.1626 90.7264 81.1888 92.1147 80.3106C93.3349 79.5849 94.717 78.8299 96.1884 79.1489C96.8355 79.3337 97.6491 79.4724 97.9957 80.1226C98.1914 80.7759 97.5936 81.2736 97.1668 81.6665C95.1068 83.3351 92.5938 84.3489 90.0593 85.0454C89.879 85.4336 89.7188 85.8404 89.6941 86.2733C89.6864 86.5984 89.6047 87.0098 89.9052 87.2394C90.2026 87.2979 90.4938 87.1809 90.7711 87.0884C92.1624 86.5414 93.3858 85.6678 94.6353 84.8635C95.8202 84.0901 97.0035 83.312 98.1899 82.5385C98.7076 82.2258 98.9264 81.6249 99.3377 81.2027C100.785 79.5787 102.596 78.1227 104.764 77.6497C105.578 77.548 106.425 77.491 107.234 77.6574C107.887 77.8269 108.508 78.3507 108.544 79.0641C108.661 79.9516 108.271 80.7867 107.823 81.5232C106.998 82.8636 105.968 84.0808 104.75 85.0808C103.536 86.1177 102.187 87.13 100.58 87.4243C99.5011 87.583 98.1591 87.3395 97.5828 86.3134C97.1098 85.258 97.5967 84.107 98.0235 83.1225C96.21 84.6617 94.492 86.3365 92.4767 87.6169C91.5199 88.187 90.466 88.7555 89.3166 88.6877C88.4461 88.6893 87.6495 88.0314 87.3999 87.2132C87.2797 86.5584 87.3783 85.8897 87.5463 85.2534C86.3075 86.3997 85.0164 87.4905 83.6466 88.4797C83.0919 88.8433 82.4695 89.2177 81.7777 89.1499C81.0951 89.1684 80.5327 88.6215 80.317 88.0098C79.9627 87.0314 80.0212 85.9729 80.0351 84.9498C78.9057 86.1639 77.895 87.4828 76.9443 88.8403C76.4698 89.4997 76.194 90.3502 75.4806 90.8032C74.9752 91.042 74.4529 90.5983 74.285 90.1407C74.1263 89.5105 74.5299 88.9543 74.8704 88.4705C75.6871 87.3704 76.556 86.3103 77.4466 85.2703C75.9028 86.734 74.2773 88.1053 72.6779 89.5059C72.1602 89.9465 71.5362 90.3456 70.8259 90.2716C70.2127 90.3286 69.5933 89.9758 69.3946 89.3826C69.2528 88.6369 69.3252 87.8449 69.6858 87.1701C68.0865 88.4828 66.6721 90.0898 64.7569 90.9619C63.9603 91.3471 62.9788 91.4796 62.1576 91.0975C61.2686 90.626 61.0298 89.5136 61.0776 88.5876C61.207 87.0946 62.1222 85.8096 63.1761 84.8019C64.9264 83.1225 67.0649 81.7851 69.4331 81.1934C70.6441 80.9608 71.9461 81.0995 73.0631 81.631C73.5546 81.8514 73.8828 82.3043 74.0199 82.8159C74.5145 82.7804 75.0122 82.7727 75.5052 82.8421C75.5253 82.9299 75.5622 83.1055 75.5807 83.1934C74.5654 84.2796 73.4545 85.2718 72.4453 86.3642C71.8244 87.0915 71.1695 87.922 71.1557 88.925C73.5254 87.5645 75.7425 85.9482 77.8765 84.2442C78.2386 83.9298 78.7331 83.7866 79.0213 83.389C80.8209 81.232 82.6575 79.1073 84.4756 76.9671ZM102.478 80.1812C100.899 81.819 99.6243 83.8651 99.3038 86.1516C99.3562 86.4937 99.461 87.0098 99.9386 86.8265C101.201 86.2549 102.193 85.2287 103.173 84.275C104.33 83.0547 105.472 81.7913 106.308 80.3229C106.579 79.7898 106.901 79.2151 106.829 78.5957C106.743 78.1535 106.188 78.0102 105.803 78.1104C104.489 78.3723 103.407 79.2598 102.478 80.1812ZM95.2532 80.0271C94.3256 80.4246 93.5321 81.0671 92.7633 81.7081C91.9359 82.3906 91.1301 83.1379 90.6124 84.0916C91.1132 83.9653 91.5569 83.6895 92.0099 83.4537C93.2564 82.7866 94.4489 82.007 95.5166 81.0779C95.8834 80.7466 96.2778 80.3799 96.3687 79.8699C95.9881 79.833 95.6014 79.8669 95.2532 80.0271ZM67.6628 83.4229C65.9972 84.6802 64.4703 86.2271 63.589 88.1423C63.3317 88.6893 63.1453 89.2824 63.213 89.8941C63.4919 89.9465 63.7908 89.9635 64.042 89.8063C64.9818 89.3117 65.8293 88.6631 66.6844 88.0391C68.0618 86.9944 69.4316 85.9359 70.7427 84.8081C71.4299 84.1764 72.1664 83.5108 72.4468 82.5863C72.2789 82.0979 71.829 81.7158 71.2928 81.7789C69.9462 81.9315 68.7475 82.6556 67.6628 83.4229ZM83.4679 82.2951C82.6729 82.6865 81.8239 83.0485 81.2215 83.7249C82.4941 83.5431 83.9178 83.5816 84.9671 82.7188C85.2413 82.5401 85.3815 82.0732 85.0087 81.9192C84.4663 81.8252 83.9563 82.0979 83.4679 82.2951Z" fill="#F7F7F7"/>
<path d="M134.925 77.2059C135.401 77.4324 135.868 77.682 136.339 77.9224C137.532 78.6404 138.834 79.4015 139.461 80.7065C139.758 81.782 138.832 82.5832 137.977 83.0161C137.905 83.0577 137.761 83.1409 137.69 83.1825C137.524 83.2812 137.356 83.3767 137.191 83.4753C136.906 83.6802 136.667 83.9406 136.538 84.2703C136.587 84.3581 136.687 84.5323 136.738 84.6201C136.885 84.8835 137.042 85.1424 137.197 85.4043C137.655 86.2656 138.527 86.7895 139.006 87.6353C139.049 88.0375 138.963 88.4273 138.786 88.7878C138.487 88.9049 138.182 89.0035 137.877 89.0991C137.355 89.1869 136.832 89.2732 136.319 89.3949C135.644 89.4581 134.985 89.6214 134.308 89.6537C133.945 89.794 133.546 89.7616 133.165 89.7832L133.151 89.8879C132.742 89.8987 132.335 89.928 131.928 89.9372L131.917 90.0436C131.561 90.0543 131.204 90.0759 130.849 90.0852L130.826 90.1853C130.392 90.2007 129.959 90.2223 129.529 90.267C129.115 90.421 128.66 90.3702 128.229 90.3948L128.212 90.495C127.754 90.5104 127.296 90.5474 126.839 90.5505L126.834 90.6522C126.375 90.666 125.916 90.6999 125.458 90.7076L125.44 90.8062C124.529 90.8001 123.642 91.0266 122.733 91.0327C122.283 91.1637 121.81 91.1375 121.349 91.1899C120.801 91.344 120.221 91.2808 119.662 91.3501C118.694 91.515 117.71 91.5951 116.728 91.6583C116.229 91.7954 115.705 91.76 115.195 91.8139C113.108 92.0912 110.995 92.2268 108.904 92.4733C108.43 92.5196 107.954 92.5396 107.481 92.5858C106.411 92.7245 105.331 92.8031 104.256 92.8971C103.179 93.0219 102.094 93.1205 101.011 93.2006C97.1654 93.5904 93.3119 93.9448 89.4585 94.2776C88.8606 94.4316 88.2305 94.3161 87.6357 94.4748C87.0734 94.5457 86.4987 94.5025 85.944 94.6304C85.3832 94.7105 84.8038 94.6381 84.2538 94.7876C82.0798 94.9355 79.9196 95.2097 77.7471 95.3469C77.194 95.4917 76.6147 95.4362 76.0523 95.5009C75.4853 95.6581 74.8906 95.5995 74.3097 95.6381L74.2881 95.7336C73.7273 95.7398 73.168 95.7875 72.6072 95.7891L72.5902 95.8892C71.4608 95.8676 70.353 96.1388 69.2221 96.0987L69.2082 96.202C68.6982 96.2097 68.1882 96.2482 67.6798 96.2544L67.669 96.3545C66.6352 96.3129 65.6275 96.5903 64.5952 96.5594L64.5859 96.6627C63.304 96.7058 62.0344 96.94 60.7464 96.8707L60.7356 96.9754C58.6032 96.9893 56.4692 97.034 54.3368 96.94C53.5032 96.7952 52.6466 96.8583 51.8022 96.8121V96.7074C50.8208 96.7736 49.8671 96.5009 48.8902 96.5055L48.8717 96.4007C48.0351 96.4269 47.2401 96.1188 46.4157 96.034L46.4065 95.9539C46.2278 95.9154 46.0506 95.8738 45.8749 95.8276C45.7085 95.7382 45.5313 95.6643 45.3834 95.5487C45.2186 95.3314 45.5129 95.1512 45.5837 94.9694L45.8133 94.9416C50.1721 95.5456 54.5818 95.5502 58.9714 95.4177C70.6704 94.2406 82.3848 93.236 94.0915 92.1313C105.479 91.0481 116.872 90.0004 128.23 88.6368C130.685 88.301 133.162 88.0668 135.573 87.4844C136.282 87.3688 136.401 86.5029 136.204 85.9405C135.8 85.3304 135.177 84.9036 134.775 84.2919C134.412 83.7357 133.957 83.1918 133.872 82.5108C134.429 81.9376 135.151 81.594 135.814 81.1703C136.375 80.7928 136.934 80.1673 136.808 79.4416C136.561 78.4509 135.706 77.7853 134.925 77.2059Z" fill="#F7F7F7"/>
<path d="M39.5762 89.1669C40.6424 89.606 41.7825 89.928 42.9443 89.9157C43.4959 89.9249 44.1414 89.9403 44.5513 90.3656C44.8178 90.629 44.6514 91.0127 44.5744 91.3193C44.3972 91.2792 44.2231 91.2376 44.049 91.1945C43.841 91.1483 43.633 91.1005 43.4296 91.0435C43.2709 90.9958 43.1138 90.9495 42.9566 90.9033C42.801 90.8478 42.6454 90.7939 42.4913 90.7384C42.2355 90.6352 41.9798 90.532 41.7255 90.4272C41.647 90.3872 41.4929 90.307 41.4158 90.267C40.9382 90.042 40.476 89.7878 40.0353 89.4997C39.8812 89.3887 39.7272 89.2778 39.5762 89.1669Z" fill="#F7F7F7"/>
<path d="M69.1138 16.1333C77.7883 15.4415 86.5567 15.6418 95.1573 17.0269C97.4099 17.3751 99.6378 17.8497 101.866 18.3273C101.981 17.825 102.092 17.3227 102.217 16.8235C103.259 17.634 104.397 18.3211 105.402 19.1763C104.123 19.4428 102.833 19.6616 101.551 19.9174C101.627 19.4567 101.721 19.0006 101.786 18.5384C96.3483 17.5893 90.8401 17.01 85.318 16.9791C84.1901 16.8605 83.0561 16.9144 81.9237 16.9129C80.1826 17.0839 78.4246 16.9314 76.6851 17.1378C75.0904 17.2041 73.5003 17.3443 71.9103 17.4938C71.1445 17.5446 70.3849 17.7141 69.6145 17.674C69.388 17.1825 69.237 16.6587 69.1138 16.1333Z" fill="black"/>
<path d="M80.2658 25.3301C81.7156 24.5335 83.3134 23.8402 85.0036 23.9326C86.0745 23.891 87.2177 24.2916 87.8725 25.1698C88.3825 25.8385 88.4996 26.7183 88.4195 27.5349C88.4149 27.4702 88.4056 27.3439 88.401 27.2807C88.1976 29.011 87.0374 30.4562 85.7756 31.5794C84.3349 32.8151 82.5739 33.7041 80.6941 34.0077C80.7604 34.171 80.8266 34.3358 80.8944 34.5007C81.8281 36.989 82.976 39.3957 83.8804 41.8933L83.7002 41.9703C80.6109 43.4017 77.5386 44.8731 74.4463 46.2983C74.2676 46.4247 74.092 46.3199 74.0257 46.1335C72.7161 43.753 71.3787 41.3879 70.0675 39.0105C68.3865 40.1645 66.4097 40.9473 64.3559 41.0104C63.2188 40.9673 61.9862 40.7146 61.1865 39.8364C60.692 39.3664 60.4747 38.6993 60.3992 38.0383C60.2775 36.5515 60.9678 35.1401 61.8491 33.9892C63.6333 31.752 66.2341 30.1896 69.046 29.6612C70.7023 27.1713 73.4156 25.4318 76.3307 24.8201C77.6419 24.626 79.1056 24.5813 80.2658 25.3301ZM83.1331 24.7831C82.3073 25.0327 81.5015 25.3578 80.7665 25.8108C80.5539 25.9248 80.2951 26.1482 80.0624 25.9495C78.688 25.0589 76.9285 25.2592 75.4355 25.7091C73.0519 26.4703 70.8764 28.0079 69.5097 30.1219C69.4173 30.259 69.2802 30.3299 69.103 30.3329C66.3589 30.8013 63.8367 32.4114 62.1773 34.6378C61.4146 35.7056 60.7952 37.043 61.0987 38.3819C61.3791 39.4928 62.49 40.1661 63.5747 40.2847C65.6008 40.5158 67.61 39.7778 69.3094 38.7239C70.7624 37.764 72.1367 36.4297 72.5789 34.6902C72.7392 35.6979 72.0813 36.5006 71.6344 37.3234C71.3078 37.7533 70.9319 38.1415 70.5467 38.519C70.6638 38.6685 70.7762 38.8195 70.8949 38.9704C70.8949 39.0275 70.8933 39.1399 70.8918 39.1969L71.0181 39.2324C71.1876 39.6314 71.3956 40.0135 71.6545 40.3633C71.6606 40.408 71.676 40.4958 71.6838 40.5405C71.7747 40.6761 71.8656 40.8117 71.958 40.9488C72.0797 41.1907 72.2045 41.4326 72.3232 41.6776L72.4526 41.6976C72.451 41.7531 72.4495 41.8625 72.448 41.9179C72.7053 42.2738 72.9071 42.6652 73.0951 43.0627L73.2245 43.0812C73.223 43.1367 73.2199 43.2491 73.2183 43.3046C73.471 43.6497 73.6652 44.0334 73.8624 44.414C73.9425 44.5465 74.0226 44.679 74.1043 44.813C74.1875 44.9948 74.2738 45.1751 74.3708 45.3523C74.5573 45.4786 74.85 45.4201 74.9825 45.2336C75.0395 45.2383 75.1535 45.2506 75.2106 45.2568L75.2306 45.058C75.3045 45.0703 75.4494 45.0965 75.5233 45.1088L75.5403 44.9625C76.0456 44.8284 76.5479 44.6528 76.9747 44.3431C77.0518 44.3092 77.2058 44.2429 77.2829 44.2106C78.2998 43.8331 79.2489 43.2969 80.2396 42.8609C81.1933 42.4017 82.1625 41.9796 83.1039 41.4942C82.805 40.9411 82.6062 40.3433 82.3535 39.7686C81.5955 37.9489 80.8528 36.1231 80.0901 34.3081C80.0624 34.2758 80.0054 34.2141 79.9777 34.1833C79.0255 33.9383 78.0856 33.5932 77.2736 33.0262C78.6557 33.3667 80.1287 33.5978 81.5184 33.1602C84.0499 32.4161 86.4119 30.675 87.495 28.2206C87.549 28.0634 87.6075 27.9093 87.6676 27.7552C87.8263 26.914 87.8217 25.9202 87.1422 25.2977C86.056 24.324 84.4505 24.4642 83.1331 24.7831Z" fill="black"/>
<path d="M20.426 32.3405C20.6216 32.2142 20.8281 32.1063 21.033 31.9985C21.5091 32.963 22.0345 33.9013 22.5476 34.8458C17.2951 38.6931 12.4849 43.2645 8.93496 48.7558C6.07069 53.2024 4.09389 58.3224 3.8258 63.638C3.66864 64.8752 3.81655 66.1156 3.89513 67.3528C4.25105 71.2463 5.55145 75.0304 7.54366 78.3877C9.02125 80.8776 10.8717 83.1317 12.9363 85.1563C16.4693 88.5999 20.6155 91.3733 25.0113 93.5904C30.4486 96.3391 36.265 98.2959 42.2 99.641C42.277 99.7612 42.3572 99.8798 42.4388 100H42.4188C42.1492 99.5224 41.5606 99.5794 41.0984 99.4684C36.5747 98.6102 32.125 97.3514 27.8185 95.7197C22.3981 93.6459 17.1765 90.9465 12.6112 87.338C8.43114 84.0516 4.80264 79.9531 2.51615 75.1213C0.870619 71.6438 -0.0322673 67.7981 0.00162947 63.9446C-0.0507564 59.4579 1.16336 55.0159 3.15403 51.0146C5.09076 47.1334 7.7039 43.6097 10.7161 40.4973C13.6466 37.4374 16.9331 34.7333 20.426 32.3405Z" fill="black"/>
<path d="M38.5544 34.6532C41.9533 34.4344 45.4894 34.5608 48.6633 35.9182C50.825 36.8473 52.8003 38.4497 53.7556 40.6437C54.5814 42.5373 54.6538 44.6851 54.2948 46.6958C53.8711 48.9869 52.6061 51.0808 50.8528 52.6C48.8251 54.3626 46.306 55.5598 43.6667 56.0374C43.6497 56.0606 43.6158 56.1068 43.6004 56.1299C42.5588 56.2362 41.5327 56.4935 40.4819 56.4904C39.2924 56.5336 37.9812 56.8201 36.8765 56.2562C36.7363 55.8325 36.7271 55.3903 36.8719 54.9666C37.7486 54.7324 38.6607 54.8772 39.5559 54.8249C42.0658 54.791 44.6913 54.0915 46.571 52.3519C48.1734 50.919 49.084 48.8082 49.2149 46.6789C49.5108 44.1828 48.9915 41.4834 47.3768 39.4989C46.1704 37.9843 44.3708 36.9998 42.4756 36.6654C40.8964 36.442 39.2739 36.4158 37.7147 36.7902C36.9073 37.0106 35.9844 37.3002 35.553 38.0814C35.271 38.9689 35.3327 39.9165 35.2772 40.8347C35.0892 42.6282 35.2187 44.4355 35.06 46.2305C34.9798 52.2888 34.9691 58.3486 34.9798 64.4084C35.006 65.262 34.9768 66.1541 35.3188 66.9553C35.6424 67.587 36.4451 67.7025 37.0845 67.701C38.4589 67.6378 39.7608 67.0755 41.1413 67.057C41.26 67.3574 41.4464 67.7688 41.1722 68.0446C40.7562 68.4745 40.1152 68.513 39.5605 68.6193C36.1385 69.0846 32.7981 70.0121 29.5533 71.177C29.1881 71.3911 28.6658 70.9844 28.8676 70.5807C29.2528 70.0245 29.8907 69.6578 30.1511 69.0122C30.3714 68.3389 30.373 67.6209 30.4654 66.9245C30.7011 63.6765 30.7212 60.4163 30.7381 57.1607C30.8752 55.7817 30.7782 54.3965 30.8259 53.0145C30.8152 49.161 30.8537 45.306 30.8059 41.4526C30.6811 40.5574 30.8013 39.6222 30.4947 38.7593C30.3884 38.5483 30.2728 38.2509 29.9909 38.2617C28.2251 38.1554 26.7383 39.3202 25.0419 39.5806C24.894 39.331 24.6968 39.0305 24.8462 38.7331C25.1143 38.3726 25.5288 38.1631 25.9279 37.9813C29.9631 36.3265 34.1879 35.0107 38.5544 34.6532Z" fill="black"/>
<path d="M61.8769 49.5092C62.1927 49.3259 62.5594 49.3829 62.9046 49.4168C62.9616 50.8759 62.8414 52.3381 62.9061 53.7987C63.2559 53.62 63.4808 53.2872 63.7551 53.0191C64.9846 51.7618 66.3959 50.6664 67.9783 49.8883C68.6917 49.5354 69.4759 49.3213 70.2786 49.3583C70.4913 50.2504 70.3726 51.1717 70.405 52.0792C70.405 52.6509 70.4081 53.4305 69.7517 53.6524C67.9906 53.8912 66.117 53.7217 64.4653 54.4998C63.4546 54.9635 63.242 56.1823 63.0694 57.1653C62.9138 58.0897 62.8614 59.025 62.8599 59.9618C62.8183 59.8015 62.7782 59.6428 62.7397 59.4841C62.8599 61.6951 62.5825 63.9015 62.5764 66.1125C62.5841 66.9306 62.4839 67.7457 62.4131 68.5608C62.4023 68.8227 62.1111 68.9305 61.9293 69.0631C61.0788 69.5422 60.1897 69.9536 59.2992 70.3496C59.0357 70.4775 58.746 70.5222 58.4579 70.4929C58.8832 66.0123 58.7661 61.5072 58.7799 57.0128C58.7568 55.9897 58.7892 54.9435 58.498 53.9497C58.3377 53.4351 57.8324 53.0191 57.2777 53.0592C56.2932 52.9898 55.4149 53.4998 54.4935 53.7433C53.9805 53.8434 53.9235 53.1778 53.9111 52.8219C54.4165 52.4151 55.0359 52.2087 55.6522 52.0392C57.8016 51.3921 59.8508 50.4645 61.8769 49.5092Z" fill="black"/>
<path d="M87.8664 49.4291C88.2871 49.2535 88.7046 49.52 89.0451 49.7481C90.0405 50.4584 90.8555 51.4722 91.1406 52.6801C93.6042 51.4876 96.0309 50.1163 98.7227 49.5016C100.183 49.1549 101.812 49.4522 102.969 50.4368C103.746 51.0331 104.254 51.9051 104.527 52.8358C106.809 51.6016 109.151 50.4275 111.648 49.6941C113.358 49.1672 115.366 49.2165 116.868 50.2766C118.021 51.0978 118.635 52.4521 118.973 53.7864C119.634 56.3995 119.447 59.1174 119.403 61.7845C119.272 63.1696 119.312 64.5625 119.186 65.9476C119.153 66.282 119.249 66.6071 119.321 66.9291C120.404 67.3035 121.523 66.7766 122.614 66.6749C123.027 66.7196 123.128 67.2188 122.973 67.5377C122.612 67.8597 122.13 67.9938 121.672 68.1078C119.4 68.6286 117.223 69.4806 115.035 70.2741C114.702 70.4528 114.286 70.2849 114.147 69.9444C114.138 69.5407 114.423 69.2141 114.557 68.852C115.183 67.3174 115.312 65.6426 115.437 64.0078C115.472 61.3069 115.571 58.5397 114.799 55.9204C114.463 54.7016 113.637 53.5892 112.451 53.0915C110.793 52.392 108.861 52.4629 107.203 53.1254C106.331 53.4752 105.468 53.8573 104.661 54.3395C104.824 55.7925 104.722 57.2562 104.715 58.7153C104.778 61.9478 104.729 65.1803 104.749 68.4129C104.813 69.0122 104.152 69.2372 103.715 69.4344C102.841 69.7533 101.954 70.0907 101.029 70.2125C100.639 70.3172 100.655 69.8982 100.67 69.6485C100.827 67.8551 100.977 66.057 100.997 64.2543C101.176 62.5595 100.989 60.86 100.934 59.1637C100.755 57.5551 100.621 55.8557 99.7781 54.432C99.0878 53.261 97.7335 52.6355 96.4053 52.6077C94.6027 52.5014 92.9201 53.3134 91.4271 54.2378C91.6644 57.5212 91.4949 60.8169 91.3717 64.1018C91.2669 65.49 91.1806 66.8813 91.0173 68.2634C90.9572 68.57 90.9865 68.9829 90.6229 69.1047C89.6414 69.5746 88.6076 69.932 87.5799 70.2864C87.2948 70.4266 87.1438 70.0291 87.1269 69.8103C87.452 66.584 87.6061 63.3407 87.5814 60.0974C87.6014 58.3394 87.5675 56.5444 87.0082 54.8603C86.7448 54.0437 86.2564 53.2703 85.5245 52.8003C84.7341 52.3088 83.7418 52.1886 82.8436 52.4013C82.5616 52.4444 82.2565 52.56 81.9807 52.4475C81.7573 52.2564 81.7481 51.9329 81.668 51.6725C82.1749 51.2488 82.8621 51.2257 83.4707 51.0439C84.9775 50.6294 86.4258 50.027 87.8664 49.4291Z" fill="black"/>
<path d="M131.851 49.7512C133.707 49.2473 135.723 49.1965 137.565 49.7881C139.202 50.3274 140.698 51.5955 141.114 53.3211C141.243 54.016 141.482 54.8049 141.072 55.452C140.496 56.3672 139.514 56.9188 138.595 57.4319C135.414 59.0774 131.935 60.0311 128.478 60.8955C128.609 62.8646 129.546 64.866 131.228 65.9708C132.584 66.8629 134.254 67.1017 135.847 67.077C137.078 67.02 138.33 66.8505 139.471 66.3606C140.571 65.8937 141.531 65.1449 142.368 64.299C142.829 63.8322 143.191 63.2667 143.701 62.8476C144.066 62.5996 144.528 62.8107 144.75 63.1496C144.714 63.5564 144.587 63.9493 144.363 64.2913C143.429 65.8275 142.255 67.2018 141.027 68.5084C140.385 69.2202 139.596 69.8566 138.641 70.0753C136.968 70.442 135.245 70.3558 133.544 70.3481C131.167 70.2186 128.709 69.5838 126.869 67.9999C124.854 66.3128 123.977 63.598 124.027 61.0295C123.95 58.5212 124.655 55.9728 126.138 53.9343C127.553 52.0068 129.518 50.3998 131.851 49.7512ZM129.196 54.073C128.284 55.5829 128.145 57.398 128.247 59.1205C130.358 58.968 132.513 58.4796 134.31 57.3132C135.214 56.7062 136.06 55.8772 136.348 54.791C136.524 53.979 136.499 53.0176 135.887 52.3843C135.066 51.3952 133.639 51.218 132.453 51.4938C131.045 51.8065 129.906 52.8512 129.196 54.073Z" fill="black"/>
<path d="M74.8286 50.899C76.4063 50.503 77.9162 49.8883 79.4662 49.406C79.9393 49.2442 80.4585 49.651 80.5679 50.1009C80.4107 52.449 80.2936 54.8049 80.309 57.1622C80.3106 60.706 80.3075 64.2497 80.3106 67.7935C80.3013 68.2018 80.3183 68.6178 80.2243 69.0184C80.1396 69.4067 79.7205 69.5376 79.3923 69.6516C78.3615 69.9475 77.3477 70.3018 76.3061 70.5622C76.0935 70.1385 76.0304 69.6609 76.018 69.194C75.9965 64.5132 76.0473 59.8324 75.9903 55.1515C75.9117 54.3365 75.9703 53.3134 75.2369 52.768C74.5635 52.2903 73.71 52.4906 72.9873 52.7217C72.3988 52.9482 72.0552 52.2426 72.106 51.7526C72.9319 51.2457 73.9118 51.1486 74.8286 50.899Z" fill="black"/>
</svg>
