<svg width="21" height="21" viewBox="0 0 21 21" fill="none" xmlns="http://www.w3.org/2000/svg">
<path d="M13.5495 14.7813L15.2995 13.0313C15.5352 12.7985 15.8334 12.6392 16.1579 12.5726C16.4824 12.506 16.8193 12.5351 17.1276 12.6563L19.2604 13.5078C19.572 13.6343 19.8391 13.8502 20.0282 14.1282C20.2173 14.4063 20.3198 14.7341 20.3229 15.0703V18.9766C20.3211 19.2053 20.273 19.4313 20.1816 19.641C20.0901 19.8507 19.9572 20.0396 19.7907 20.1966C19.6243 20.3535 19.4279 20.4751 19.2132 20.5541C18.9985 20.6331 18.7701 20.6679 18.5417 20.6563C3.59634 19.7266 0.580717 7.07034 0.0104043 2.22659C-0.01607 1.98873 0.00811883 1.74796 0.0813794 1.52012C0.15464 1.29228 0.275312 1.08253 0.435457 0.904669C0.595601 0.726813 0.79159 0.584879 1.01053 0.488207C1.22947 0.391534 1.46639 0.342313 1.70572 0.343782H5.47915C5.81588 0.344779 6.14461 0.446491 6.42306 0.635836C6.70151 0.825181 6.91694 1.0935 7.04165 1.40628L7.89322 3.53909C8.01841 3.84618 8.05036 4.18335 7.98505 4.50848C7.91975 4.83361 7.76009 5.13229 7.52603 5.36722L5.77603 7.11722C5.77603 7.11722 6.78384 13.9375 13.5495 14.7813Z" fill="#C41300"/>
</svg>
