<svg width="52" height="50" viewBox="0 0 52 50" fill="none" xmlns="http://www.w3.org/2000/svg">
<path d="M43.25 37.25C44.25 35.5 45 33.5 45 31.25C45 25 40 20 33.75 20C27.5 20 22.5 25 22.5 31.25C22.5 37.5 27.5 42.5 33.75 42.5C36 42.5 38 41.75 39.75 40.75L47.75 48.75L51.25 45.25L43.25 37.25ZM33.75 37.5C30.25 37.5 27.5 34.75 27.5 31.25C27.5 27.75 30.25 25 33.75 25C37.25 25 40 27.75 40 31.25C40 34.75 37.25 37.5 33.75 37.5ZM25 45V50C11.2 50 0 38.8 0 25C0 11.2 11.2 0 25 0C37.1 0 47.175 8.6 49.5 20H44.325C43.5453 16.9796 42.0698 14.1835 40.0166 11.835C37.9633 9.48662 35.3892 7.65104 32.5 6.475V7.5C32.5 10.25 30.25 12.5 27.5 12.5H22.5V17.5C22.5 18.875 21.375 20 20 20H15V25H20V32.5H17.5L5.525 20.525C5.2 21.975 5 23.45 5 25C5 36.025 13.975 45 25 45Z" fill="#C41300"/>
</svg>
