<svg width="42" height="63" viewBox="0 0 42 63" fill="none" xmlns="http://www.w3.org/2000/svg">
<path d="M39.9167 30C39.9167 42.8333 20.9583 60.3333 20.9583 60.3333C20.9583 60.3333 2 42.8333 2 30C2 19.3688 10.4875 10.75 20.9583 10.75C31.4292 10.75 39.9167 19.3688 39.9167 30Z" stroke="#C41300" stroke-width="4" stroke-linecap="round" stroke-linejoin="round"/>
<path d="M9.29183 45.75H18.0418M20.9585 2V10.75V2ZM12.2085 3.45833L18.0418 10.75L12.2085 3.45833ZM29.7085 3.45833L23.8752 10.75L29.7085 3.45833ZM3.4585 25.3333H15.1252H3.4585ZM28.2502 35.5417H38.4585H28.2502Z" stroke="#C41300" stroke-width="4" stroke-miterlimit="2" stroke-linecap="round" stroke-linejoin="round"/>
<path d="M6.10089 18.0417C3.43399 21.4565 1.98998 25.6673 2.00005 30.0001C2.00005 38.1011 9.55422 48.0601 15.1251 54.3047" stroke="#C41300" stroke-width="4" stroke-linecap="round" stroke-linejoin="round"/>
<path d="M39.9166 30C39.9166 34.0454 38.0339 38.5546 35.4541 42.8333" stroke="#C41300" stroke-width="4" stroke-linecap="round"/>
</svg>
