<?xml version="1.0" standalone="no"?>
<!DOCTYPE svg PUBLIC "-//W3C//DTD SVG 20010904//EN"
 "http://www.w3.org/TR/2001/REC-SVG-20010904/DTD/svg10.dtd">
<svg version="1.0" xmlns="http://www.w3.org/2000/svg"
 width="1257.000000pt" height="1257.000000pt" viewBox="0 0 1257.000000 1257.000000"
 preserveAspectRatio="xMidYMid meet">
<metadata>
Created by potrace 1.14, written by Peter Selinger 2001-2017
</metadata>
<g transform="translate(0.000000,1257.000000) scale(0.100000,-0.100000)"
fill="#000000" stroke="none">
<path d="M3127 10589 c-125 -45 -186 -164 -155 -302 10 -44 77 -132 108 -142
25 -8 26 -21 3 -29 -21 -7 -92 -48 -151 -87 -24 -16 -47 -29 -53 -29 -5 0 -9
-4 -9 -8 0 -4 -12 -15 -27 -24 -16 -9 -37 -25 -48 -35 -11 -10 -36 -30 -55
-44 -65 -48 -182 -170 -285 -296 -5 -7 -16 -19 -22 -27 -7 -8 -13 -17 -13 -19
0 -2 -24 -41 -54 -86 -45 -67 -138 -241 -141 -261 0 -3 -16 -43 -34 -90 -18
-46 -35 -91 -37 -100 -2 -8 -10 -40 -18 -70 -14 -47 -26 -108 -41 -195 -14
-78 -18 -141 -17 -290 1 -143 6 -270 12 -270 2 0 7 -24 14 -71 4 -22 10 -54
15 -70 8 -29 6 -31 -75 -79 -95 -56 -93 -49 -42 -149 83 -163 82 -162 127
-128 20 15 38 30 39 35 2 4 8 7 14 7 5 0 42 22 81 49 130 88 447 274 463 271
4 -1 10 2 13 7 8 11 26 20 188 102 136 68 331 161 339 161 2 0 36 15 76 34 40
18 138 59 218 90 80 31 159 63 175 70 40 17 93 36 325 113 107 36 202 67 210
70 8 4 20 7 25 8 6 2 82 23 170 48 88 24 174 48 190 52 17 5 35 9 40 11 6 2
19 5 30 7 11 3 58 15 105 27 101 26 119 30 145 34 11 2 29 6 40 9 11 3 31 8
45 11 14 2 45 9 70 15 25 5 56 12 70 14 14 3 75 14 135 26 151 28 176 33 205
36 14 2 34 6 45 8 11 2 42 8 68 11 27 4 59 10 70 12 12 2 42 6 67 9 25 2 46 5
48 6 4 3 22 7 42 8 20 1 20 1 -1 54 -12 28 -22 59 -24 67 -2 16 -36 18 -140 9
l-49 -4 -55 110 c-29 61 -58 113 -63 116 -5 3 -9 9 -9 13 1 6 -68 116 -79 126
-3 3 -17 21 -30 40 -58 82 -184 217 -279 296 -19 16 -42 36 -51 44 -9 8 -24
20 -32 25 -9 6 -44 30 -79 55 -35 25 -73 50 -84 56 -91 51 -180 96 -235 118
-36 15 -74 31 -85 36 -11 5 -38 14 -60 20 -22 6 -47 14 -55 17 -18 7 -27 10
-62 16 -15 3 -32 8 -36 11 -5 3 -28 8 -52 11 -23 3 -46 8 -51 11 -5 3 -26 7
-46 9 -21 2 -67 7 -103 11 -112 13 -390 7 -450 -11 -8 -2 -33 -7 -55 -9 -42
-6 -80 -13 -80 -16 0 -1 -9 -3 -20 -4 -11 -2 -33 -7 -48 -11 -27 -7 -28 -6
-21 21 50 198 -132 370 -319 303z"/>
<path d="M6429 9235 c-3 -3 -168 -13 -329 -20 -58 -2 -93 -14 -87 -28 2 -7 12
-35 22 -63 l18 -50 51 2 c28 1 71 4 96 8 262 33 617 50 1040 49 405 0 693 -12
720 -28 5 -3 11 -1 15 5 4 6 11 7 17 4 11 -7 26 -9 148 -19 101 -9 127 -11
183 -19 26 -3 68 -9 95 -12 48 -6 81 -11 117 -18 11 -2 45 -7 75 -10 49 -6 96
-13 125 -20 6 -2 32 -6 58 -11 43 -7 47 -10 41 -29 -4 -11 -8 -38 -10 -58 -3
-42 -7 -42 126 -13 65 14 100 20 158 29 35 6 30 24 -15 56 -27 19 -50 36 -53
39 -3 4 -12 11 -21 16 -9 6 -44 30 -78 53 -35 24 -64 42 -66 40 -2 -1 -9 -28
-17 -58 -11 -45 -17 -55 -33 -54 -28 2 -96 14 -120 21 -11 3 -29 7 -40 9 -11
2 -56 10 -100 19 -44 9 -91 18 -105 21 -14 2 -36 7 -50 10 -14 4 -38 8 -55 10
-16 1 -43 5 -60 8 -42 9 -147 24 -210 32 -22 3 -51 7 -65 10 -14 2 -47 7 -75
10 -59 6 -91 10 -165 19 -56 6 -134 12 -250 20 -36 3 -96 7 -135 11 -76 6
-961 15 -966 9z"/>
<path d="M7027 8863 c-2 -1 -89 -4 -194 -7 -106 -3 -227 -8 -270 -11 -117 -9
-284 -22 -348 -29 -16 -2 -59 -7 -95 -10 -56 -6 -154 -18 -247 -31 -16 -2 -41
-6 -58 -9 -16 -2 -48 -7 -70 -11 -112 -16 -196 -30 -245 -40 -13 -2 -42 -7
-65 -10 -22 -3 -48 -8 -57 -11 -9 -3 -27 -7 -40 -9 -13 -3 -45 -9 -73 -15 -27
-6 -60 -12 -73 -15 -13 -2 -31 -6 -40 -9 -17 -5 -51 -12 -107 -23 -16 -3 -38
-9 -47 -14 -10 -5 -18 -8 -18 -5 0 3 -15 0 -32 -5 -18 -6 -40 -12 -49 -14 -63
-14 -157 -37 -169 -42 -21 -8 -31 -11 -62 -18 -15 -3 -40 -10 -55 -16 -16 -6
-36 -12 -47 -15 -43 -8 -268 -76 -311 -94 -11 -4 -65 -23 -120 -40 -126 -41
-335 -117 -357 -130 -10 -6 -23 -10 -29 -10 -6 0 -25 -6 -42 -14 -18 -8 -61
-27 -97 -41 -36 -14 -78 -32 -95 -40 -16 -7 -58 -25 -92 -39 -128 -53 -522
-242 -533 -255 -3 -3 -26 -17 -53 -30 -26 -13 -46 -26 -44 -28 4 -3 78 29 292
127 33 16 89 40 125 55 36 14 79 32 95 39 37 17 228 90 235 91 6 1 146 53 175
66 31 13 353 120 375 124 11 2 24 7 30 10 5 3 58 19 117 36 59 16 115 32 123
36 8 3 20 7 25 8 6 2 46 13 90 25 44 12 87 23 95 25 8 2 35 8 60 15 25 7 52
13 60 15 8 2 35 8 60 15 49 13 83 21 115 25 11 2 20 4 20 5 0 2 29 9 60 15 33
6 66 14 83 19 9 3 34 7 56 11 21 3 41 7 45 10 4 2 30 7 57 11 27 3 52 8 55 10
3 2 21 6 40 9 19 3 48 8 64 12 17 4 41 7 55 8 14 2 25 3 25 5 0 1 11 3 25 5
14 1 39 5 55 8 17 4 48 9 70 11 22 3 51 8 65 11 28 5 73 12 145 20 47 6 75 10
135 20 14 2 54 6 90 9 36 3 76 8 90 10 14 3 57 7 95 10 39 3 97 8 130 11 252
23 554 36 880 37 245 0 600 -12 765 -27 36 -3 92 -8 125 -10 33 -2 85 -7 115
-10 30 -4 73 -8 95 -9 22 -2 58 -6 80 -10 22 -3 63 -8 90 -12 28 -3 64 -7 80
-10 17 -2 48 -6 70 -8 22 -3 58 -7 80 -11 260 -43 350 -58 404 -71 35 -8 66
-12 69 -10 2 3 13 1 23 -5 10 -5 31 -11 46 -13 32 -5 36 -6 193 -42 63 -14
124 -30 135 -34 29 -12 109 -30 113 -25 4 4 -73 29 -93 30 -5 0 -16 4 -23 9
-11 7 -111 38 -167 52 -11 3 -24 6 -30 8 -5 2 -23 6 -40 10 -16 4 -41 12 -55
17 -14 5 -35 11 -48 14 -13 2 -76 18 -140 34 -122 31 -422 97 -482 105 -41 6
-94 15 -130 22 -14 3 -38 7 -55 9 -16 3 -45 7 -62 10 -39 6 -89 13 -140 20
-21 3 -54 7 -74 11 -20 3 -58 7 -85 10 -27 3 -62 6 -79 9 -16 2 -61 6 -100 9
-38 3 -103 8 -142 11 -115 10 -195 14 -393 20 -102 4 -216 7 -253 9 -37 1 -69
1 -70 -1z"/>
<path d="M7275 8525 c-33 -7 -78 -17 -100 -23 -22 -6 -44 -11 -49 -11 -5 0
-12 -3 -15 -8 -3 -4 -35 -22 -71 -40 -55 -27 -68 -30 -85 -19 -55 34 -197 49
-306 33 -62 -10 -141 -34 -205 -63 -29 -13 -57 -24 -62 -24 -5 0 -15 -7 -22
-15 -7 -8 -16 -13 -20 -10 -5 3 -10 2 -12 -3 -1 -4 -21 -19 -43 -32 -83 -50
-181 -140 -248 -228 -22 -29 -42 -51 -44 -48 -6 6 -160 -42 -207 -65 -22 -10
-46 -19 -53 -19 -7 0 -13 -4 -13 -10 0 -5 -5 -10 -11 -10 -37 0 -242 -164
-314 -251 -31 -37 -75 -107 -75 -119 0 -5 -4 -10 -8 -10 -8 0 -28 -48 -37 -87
-3 -10 -8 -34 -13 -53 -10 -39 -8 -154 2 -191 18 -61 45 -100 102 -148 73 -61
267 -83 389 -44 11 4 25 7 30 8 19 1 120 37 130 46 5 5 17 9 27 9 10 0 18 4
18 8 0 4 12 13 28 19 15 7 45 23 68 36 l41 25 27 -54 c15 -29 32 -56 37 -60 5
-3 7 -9 4 -14 -3 -4 2 -13 10 -20 8 -7 15 -16 15 -21 0 -4 14 -32 31 -61 32
-54 91 -160 118 -213 9 -16 18 -32 21 -35 6 -6 18 -28 55 -98 15 -29 31 -55
36 -58 5 -3 33 8 61 24 29 16 66 32 83 36 16 4 32 11 35 14 7 9 69 39 98 47
12 3 22 10 22 14 0 4 6 8 13 8 6 0 77 32 157 70 80 38 161 75 180 83 19 8 37
16 40 19 9 11 80 41 95 41 8 0 15 4 15 9 0 5 9 13 20 16 16 5 18 10 10 25 -7
13 -7 21 0 25 6 4 7 12 3 18 -5 7 -15 30 -22 52 -12 39 -20 59 -41 108 -47
108 -77 187 -72 191 3 4 0 6 -6 6 -7 0 -12 5 -12 10 0 6 -8 29 -19 53 -10 23
-29 69 -41 102 -13 33 -28 66 -33 73 -13 17 -1 27 48 39 22 6 46 12 54 14 40
11 211 100 211 110 0 7 3 9 6 6 16 -15 168 126 223 207 8 12 17 23 21 26 12
10 56 109 67 150 6 22 14 111 14 141 -2 44 -27 115 -55 151 -32 42 -112 87
-163 93 -21 2 -38 4 -38 5 0 7 -103 4 -150 -5z"/>
<path d="M9770 8412 c19 -11 39 -17 43 -15 14 8 -5 20 -43 28 l-35 7 35 -20z"/>
<path d="M1760 7778 c-144 -99 -315 -230 -415 -318 -22 -19 -67 -57 -100 -85
-128 -109 -421 -411 -508 -525 -17 -22 -35 -40 -39 -40 -4 0 -8 -5 -8 -10 0
-9 -21 -37 -106 -143 -8 -9 -14 -21 -14 -25 0 -4 -14 -23 -30 -42 -16 -19 -30
-38 -30 -41 0 -3 -23 -40 -50 -82 -28 -42 -50 -78 -50 -82 0 -3 -11 -22 -23
-43 -52 -82 -162 -311 -187 -387 -7 -22 -16 -44 -20 -50 -5 -8 -12 -30 -36
-110 -24 -79 -65 -239 -70 -270 -3 -22 -7 -42 -10 -46 -2 -3 -6 -26 -9 -50 -3
-24 -8 -66 -12 -94 -9 -64 -9 -463 1 -535 3 -30 11 -75 16 -100 5 -25 12 -58
14 -75 2 -16 5 -30 6 -30 1 0 3 -9 5 -20 15 -82 91 -314 134 -410 40 -88 75
-159 81 -165 3 -3 19 -31 35 -62 17 -32 34 -58 38 -58 5 0 5 -4 2 -10 -3 -5
-1 -10 4 -10 6 0 11 -5 11 -10 0 -19 149 -227 235 -328 103 -122 286 -303 406
-402 23 -19 47 -39 53 -45 22 -20 202 -153 266 -196 36 -24 67 -46 70 -49 6
-6 13 -10 133 -82 110 -66 145 -86 277 -155 58 -31 111 -60 118 -65 6 -6 12
-8 12 -5 0 3 30 -9 67 -27 38 -18 84 -40 103 -49 90 -40 165 -72 170 -73 7 -1
59 -22 103 -41 21 -9 44 -16 52 -16 8 0 15 -4 15 -9 0 -4 5 -8 10 -8 6 0 81
-24 168 -53 86 -30 184 -62 217 -72 33 -10 67 -20 75 -23 8 -3 22 -6 30 -8 8
-1 44 -11 80 -22 89 -27 152 -45 170 -47 13 -2 136 -30 230 -52 14 -4 28 -6
32 -5 4 1 19 -3 33 -8 14 -5 25 -6 25 -2 0 4 -42 18 -92 30 -108 26 -181 48
-373 110 -77 25 -144 47 -150 48 -12 2 -171 62 -200 74 -11 5 -49 20 -85 34
-36 13 -83 32 -105 42 -22 10 -42 18 -45 19 -18 5 -334 157 -340 164 -3 3 -10
7 -16 8 -6 1 -39 18 -72 38 -33 19 -63 35 -65 35 -3 0 -34 18 -68 40 -35 22
-72 43 -81 46 -10 4 -18 10 -18 15 0 5 -5 9 -10 9 -6 0 -65 37 -132 82 -66 46
-128 88 -137 93 -9 6 -18 12 -21 15 -3 3 -25 21 -50 40 -167 127 -401 348
-526 495 -32 39 -62 72 -65 75 -15 14 -154 216 -202 295 -211 349 -331 775
-330 1175 1 79 12 261 18 269 2 4 7 34 10 66 4 33 9 63 11 66 2 3 6 21 9 40
15 89 91 346 125 424 67 154 91 205 136 293 60 115 171 295 185 300 5 2 9 8 9
13 0 15 180 256 235 315 5 6 33 37 60 69 57 67 331 345 339 345 3 0 18 13 33
28 37 37 137 122 248 211 50 40 98 78 107 86 10 8 36 26 57 41 40 26 40 27 27
58 -7 17 -28 56 -45 86 -17 30 -39 72 -49 93 -9 20 -21 37 -27 37 -5 0 -44
-24 -85 -52z"/>
<path d="M3457 7614 c-5 -5 -41 -8 -189 -17 -16 -1 -28 -4 -28 -7 0 -3 -15 -5
-33 -6 -35 -1 -119 -14 -187 -29 -45 -11 -65 -15 -89 -20 -13 -2 -65 -16 -115
-31 -50 -14 -98 -27 -106 -29 -33 -7 -289 -98 -355 -126 -38 -17 -70 -30 -70
-29 0 9 -58 -25 -82 -48 -30 -28 -32 -31 -20 -61 11 -30 14 -32 47 -26 19 4
39 10 45 13 5 4 15 7 20 7 14 1 45 13 78 31 16 7 37 14 46 14 10 0 21 3 25 8
4 4 12 8 17 8 5 1 11 3 14 4 14 7 103 24 125 24 45 0 64 -18 77 -74 13 -53 17
-274 17 -860 0 -949 -14 -1519 -40 -1655 -2 -11 -7 -35 -10 -54 -4 -21 -28
-57 -65 -98 -53 -58 -57 -66 -47 -89 6 -13 18 -24 26 -24 8 0 89 24 181 54
160 52 270 84 301 90 8 1 34 8 58 15 24 7 58 14 75 16 18 3 61 12 97 20 56 13
107 21 185 29 45 5 144 44 146 58 1 4 2 14 3 21 1 6 -2 23 -8 35 -9 22 -14 23
-66 18 -30 -3 -70 -10 -88 -15 -17 -5 -32 -8 -32 -6 0 3 -12 0 -26 -5 -70 -27
-197 -29 -249 -4 -43 20 -57 48 -71 139 -14 88 -5 1606 12 2025 13 352 16 368
55 408 66 68 203 104 394 104 117 0 146 -3 230 -22 159 -37 319 -149 413 -289
36 -54 87 -168 96 -214 3 -12 10 -51 18 -87 19 -96 13 -295 -13 -394 -55 -215
-171 -362 -369 -473 -34 -19 -145 -60 -185 -69 -108 -24 -175 -31 -289 -33
-133 -2 -195 -7 -203 -14 -9 -9 -14 -61 -8 -86 7 -35 67 -56 150 -55 75 1 253
13 281 18 12 2 43 7 70 11 72 9 78 10 89 17 6 3 28 9 50 12 54 9 165 44 182
57 7 6 13 9 13 5 0 -13 156 67 248 128 294 194 447 466 445 796 -1 192 -46
346 -136 465 -40 52 -141 150 -192 185 -37 25 -164 92 -210 111 -44 18 -173
56 -215 64 -80 15 -166 26 -235 31 -88 7 -246 7 -252 0 -3 -3 -13 -1 -23 4
-10 5 -20 7 -23 4z"/>
<path d="M1710 7103 c-30 -31 -77 -82 -104 -112 -26 -31 -61 -70 -77 -88 -32
-36 -157 -194 -179 -227 -8 -12 -32 -45 -52 -73 -21 -28 -38 -56 -38 -62 0 -6
-4 -11 -8 -11 -4 0 -17 -14 -27 -32 -11 -17 -29 -46 -40 -64 -104 -169 -216
-390 -278 -549 -19 -49 -38 -99 -43 -110 -4 -11 -9 -24 -9 -30 -1 -5 -5 -17
-8 -25 -8 -19 -40 -130 -43 -150 -2 -8 -9 -44 -18 -80 -38 -169 -49 -273 -49
-465 1 -189 13 -306 49 -449 9 -33 17 -68 18 -76 3 -19 57 -182 65 -195 3 -5
6 -14 7 -20 4 -22 97 -210 108 -217 6 -4 7 -8 3 -8 -13 0 149 -259 204 -325
10 -11 45 -56 80 -99 75 -94 274 -297 380 -387 124 -106 130 -110 249 -200
121 -90 278 -197 395 -269 115 -71 306 -180 315 -180 5 0 10 -3 12 -8 4 -10
468 -242 468 -234 0 7 -51 36 -210 119 -126 67 -145 78 -148 86 -2 4 -8 7 -13
7 -6 0 -71 38 -146 85 -75 47 -139 85 -144 85 -4 0 -9 3 -11 8 -1 4 -30 25
-63 46 -89 58 -319 228 -328 243 -4 7 -15 13 -22 13 -8 0 -15 4 -15 8 0 4 -19
22 -42 40 -107 82 -377 342 -473 456 -27 33 -58 68 -67 78 -10 10 -18 20 -18
23 0 4 -8 15 -52 66 -9 11 -34 46 -55 77 -21 31 -41 59 -44 62 -17 15 -140
230 -187 330 -47 97 -114 266 -127 320 -2 8 -14 51 -25 95 -30 115 -26 95 -47
255 -14 108 -6 491 12 580 3 14 7 36 10 50 3 14 7 36 10 50 3 14 8 41 12 60 4
19 6 38 5 43 -1 4 3 7 9 7 5 0 7 5 4 10 -3 6 -3 16 2 23 4 6 8 17 9 24 4 25
70 220 94 278 42 100 141 303 185 380 19 33 38 67 42 75 4 8 20 34 35 56 15
23 28 47 28 53 0 6 3 11 8 11 4 0 16 16 26 35 11 19 23 35 28 35 4 0 7 3 6 8
-2 4 9 23 23 42 14 19 46 64 72 100 54 75 47 67 112 146 28 34 65 80 83 102
18 22 48 58 67 79 29 32 43 54 33 53 -2 -1 -28 -26 -58 -57z"/>
<path d="M8637 6333 c-2 -1 -18 -5 -37 -8 -55 -9 -110 -25 -170 -47 -30 -11
-59 -21 -65 -22 -5 -1 -32 -12 -59 -24 -27 -12 -50 -22 -53 -22 -2 0 -71 -33
-152 -74 -169 -84 -191 -93 -191 -75 0 7 -12 36 -26 65 -30 62 -100 140 -161
179 -46 29 -79 29 -147 0 -161 -69 -316 -122 -381 -130 -11 -1 -37 -9 -59 -18
-36 -16 -38 -19 -32 -49 9 -48 18 -51 83 -40 213 37 339 -57 392 -293 21 -93
23 -129 23 -445 -1 -282 -4 -403 -16 -565 -20 -270 -23 -259 56 -232 162 56
245 94 253 115 6 17 18 110 19 155 1 15 3 27 6 27 3 0 6 28 6 63 1 34 5 114 9
177 4 63 8 279 10 479 l3 364 53 32 c59 34 179 87 179 79 0 -2 9 0 19 5 11 6
43 13 73 17 203 22 340 -44 412 -200 28 -59 30 -66 47 -146 36 -168 48 -413
35 -725 -3 -82 -8 -179 -12 -215 -3 -36 -6 -101 -7 -144 -2 -77 -1 -80 23 -86
14 -4 32 -3 40 1 8 4 62 22 120 41 62 19 117 44 134 59 l30 26 -1 594 c-1 327
-2 599 -3 604 -9 40 2 53 78 90 161 79 247 103 377 106 79 2 176 -21 244 -56
68 -34 162 -163 177 -240 2 -11 6 -31 10 -45 17 -72 23 -113 19 -120 -3 -5 -2
-11 2 -13 25 -16 25 -589 -1 -712 -2 -11 -7 -40 -12 -65 -4 -25 -8 -47 -9 -50
-1 -3 -5 -18 -10 -35 -4 -16 -18 -52 -30 -80 -12 -27 -25 -57 -28 -67 -7 -20
22 -48 49 -48 20 0 197 60 231 79 10 5 20 9 23 8 3 0 30 8 60 18 30 11 57 20
60 20 3 1 12 5 20 8 15 6 112 34 146 42 120 28 170 49 177 74 2 9 0 27 -5 40
-8 22 -12 23 -61 17 -28 -3 -65 -9 -82 -12 -59 -10 -151 -13 -165 -4 -16 10
-18 129 -5 340 10 176 12 514 3 533 -6 11 -5 17 2 17 6 0 9 4 6 9 -3 5 -8 29
-10 55 -14 129 -50 266 -89 336 -34 60 -74 114 -97 130 -12 8 -28 20 -34 25
-50 42 -180 80 -271 78 -37 -1 -130 -15 -150 -23 -14 -5 -25 -7 -25 -4 0 4 -6
2 -12 -4 -7 -5 -29 -13 -48 -17 -19 -4 -39 -11 -45 -14 -5 -4 -39 -18 -75 -31
-36 -12 -116 -47 -177 -76 -62 -30 -115 -53 -117 -52 -2 2 -12 -4 -22 -13 -21
-17 -100 -59 -113 -59 -4 0 -18 24 -32 52 -28 62 -41 80 -94 132 -36 34 -124
85 -165 93 -52 11 -148 21 -153 16z"/>
<path d="M11637 6334 c-1 -1 -27 -5 -58 -8 -204 -24 -375 -110 -532 -271 -131
-133 -206 -263 -254 -444 -21 -78 -26 -121 -27 -223 -1 -71 -5 -128 -9 -128
-5 0 -5 -5 -1 -11 3 -6 8 -30 10 -52 8 -77 46 -201 87 -282 73 -143 227 -273
392 -332 153 -55 273 -71 504 -67 285 4 367 34 500 178 20 22 43 47 51 56 104
112 227 288 242 346 12 43 11 46 -12 64 -13 10 -32 17 -42 15 -10 -2 -67 -53
-126 -113 -96 -99 -144 -137 -222 -180 -29 -17 -99 -43 -120 -47 -8 -1 -22 -5
-30 -9 -29 -12 -146 -24 -240 -24 -226 -1 -407 82 -502 230 -18 28 -32 55 -31
60 2 4 -1 8 -5 8 -14 0 -46 100 -57 179 -3 18 -7 37 -10 41 -7 11 5 18 45 25
18 3 36 8 40 10 3 2 20 7 36 10 39 8 59 13 59 15 0 1 7 3 15 5 57 11 352 104
420 132 8 4 17 7 20 8 64 22 244 107 248 118 2 4 9 7 15 7 15 0 100 58 143 97
78 69 87 153 34 297 -22 57 -103 152 -165 193 -73 48 -189 84 -282 87 -24 0
-43 3 -43 6 0 4 -89 8 -93 4z m30 -187 c59 -14 132 -77 153 -132 7 -16 12 -55
12 -87 1 -163 -167 -318 -422 -391 -72 -21 -222 -48 -228 -42 -2 2 -13 0 -23
-5 -14 -8 -20 -6 -27 7 -13 26 -5 196 13 273 30 127 146 287 246 339 80 42
192 57 276 38z"/>
<path d="M5314 6288 c-94 -44 -155 -72 -164 -74 -3 0 -27 -10 -53 -22 -27 -12
-50 -22 -52 -22 -2 0 -16 -5 -32 -12 -15 -6 -30 -12 -33 -13 -65 -17 -242 -82
-261 -96 -27 -19 -29 -26 -16 -66 12 -33 32 -35 115 -7 90 30 103 33 159 36
75 2 116 -46 130 -153 15 -120 7 -1026 -13 -1282 l-6 -78 32 5 c55 8 298 134
305 157 9 26 15 102 19 234 21 614 26 682 62 850 21 98 95 159 214 179 19 3
45 8 58 10 12 3 59 8 105 11 204 15 209 17 228 72 12 38 15 258 3 295 -11 35
-115 18 -225 -37 -61 -31 -172 -104 -177 -117 -2 -4 -8 -8 -12 -8 -11 0 -83
-64 -162 -143 -38 -38 -60 -54 -63 -45 -2 7 -3 92 -2 189 l2 175 -35 2 c-23 2
-65 -12 -126 -40z"/>
<path d="M6888 6325 c-3 -4 -12 -8 -20 -9 -7 -2 -20 -6 -28 -9 -97 -38 -388
-125 -480 -143 -83 -17 -110 -57 -71 -105 18 -22 20 -22 89 -9 39 7 87 10 108
7 43 -7 91 -48 99 -86 3 -14 8 -37 11 -51 4 -14 8 -315 9 -670 1 -355 5 -667
9 -693 4 -27 13 -50 21 -53 7 -3 34 2 59 10 25 9 60 18 78 21 18 3 37 10 43
14 5 5 26 12 45 16 54 12 97 35 108 59 6 14 10 225 10 553 0 292 2 536 6 541
3 6 2 13 -2 16 -7 4 -9 51 -3 51 1 0 3 65 6 145 2 80 7 190 10 246 5 88 3 104
-12 123 -18 22 -82 39 -95 26z"/>
<path d="M10917 4374 c-3 -3 -56 -7 -119 -9 -153 -6 -502 -16 -673 -20 -77 -2
-221 -6 -320 -9 -741 -24 -2656 -25 -2694 -2 -6 4 -11 4 -11 -1 0 -4 -35 -9
-78 -9 -130 -2 -447 -16 -637 -28 -208 -13 -241 -16 -290 -20 -49 -5 -148 -13
-255 -21 -30 -2 -77 -6 -105 -9 -27 -2 -86 -7 -130 -10 -44 -4 -91 -9 -105
-11 -14 -3 -59 -7 -100 -10 -41 -3 -91 -7 -110 -9 -97 -9 -179 -17 -220 -21
-25 -2 -76 -7 -115 -11 -38 -3 -83 -7 -100 -9 -16 -2 -62 -6 -101 -9 -38 -3
-88 -8 -110 -10 -69 -9 -225 -18 -349 -21 -124 -3 -176 -9 -204 -24 -9 -5 -20
-10 -26 -11 -14 -4 -179 -84 -185 -91 -5 -5 -42 -23 -155 -74 -42 -19 -110
-42 -150 -50 -5 -2 -35 -8 -66 -14 -32 -7 -65 -21 -75 -32 -19 -21 -28 -69
-12 -69 4 0 8 -6 8 -13 0 -17 84 -101 155 -156 31 -24 54 -45 51 -48 -3 -3 1
-12 9 -19 46 -47 -76 -147 -263 -215 -31 -12 -76 -30 -99 -40 -23 -11 -47 -19
-53 -19 -26 0 -91 -43 -104 -69 -14 -26 -13 -32 6 -67 27 -52 76 -95 172 -152
44 -26 82 -47 85 -47 13 -1 88 -40 116 -60 17 -12 46 -30 65 -40 19 -10 52
-26 74 -37 44 -22 139 -54 191 -64 19 -3 38 -10 40 -15 9 -13 -40 -83 -105
-150 -33 -35 -60 -65 -60 -69 0 -15 87 -55 140 -64 140 -23 134 -20 115 -49
-13 -20 -13 -26 -2 -35 31 -26 179 -62 317 -77 25 -3 63 -7 85 -10 137 -16
204 -21 424 -30 79 -3 147 -8 152 -10 4 -3 10 -1 14 5 4 6 11 7 17 4 6 -4 37
-6 67 -5 54 2 67 2 94 0 18 -1 245 11 302 16 45 4 90 8 210 21 22 2 63 6 90 9
28 2 75 7 105 10 30 4 83 7 117 8 35 1 63 5 63 10 0 4 12 7 28 6 24 -1 70 2
217 17 28 3 79 7 115 9 36 1 72 5 80 8 8 3 22 5 30 6 31 0 186 12 207 16 23 4
138 15 213 20 41 3 115 9 230 20 25 2 74 7 110 10 78 8 121 14 131 21 4 2 10
0 14 -6 4 -6 10 -8 13 -6 10 6 71 14 157 21 93 8 137 12 215 20 75 8 118 11
215 20 39 3 94 8 123 11 29 3 72 7 95 9 113 9 195 16 222 20 27 4 96 11 205
21 19 1 62 5 95 8 33 4 89 9 125 12 36 3 79 7 95 9 17 2 59 6 95 9 94 8 168
15 225 22 28 3 75 7 105 9 57 5 156 14 200 20 14 1 57 6 95 9 39 4 95 9 125
13 30 3 69 7 85 8 59 6 161 16 200 21 22 2 72 7 110 10 39 3 81 7 95 9 14 3
50 7 80 10 53 5 111 11 195 20 22 3 65 7 95 9 30 3 55 6 55 6 0 1 66 9 125 15
19 1 35 4 35 5 0 1 25 4 55 6 122 10 155 13 155 14 0 1 16 3 35 6 19 2 53 6
75 9 119 15 153 19 178 19 15 1 27 3 27 6 0 3 10 6 23 6 12 1 40 3 62 4 22 1
56 6 75 10 19 5 62 11 95 15 33 3 67 8 75 10 8 2 35 6 60 9 25 3 56 8 70 11
14 3 39 8 55 11 97 17 117 26 131 61 23 55 13 84 -53 151 -47 47 -103 123
-103 138 0 8 -4 14 -8 14 -10 0 -32 45 -32 66 0 22 38 57 108 99 62 36 93 62
121 98 21 27 25 91 7 124 -23 45 -142 163 -165 163 -5 0 -13 6 -19 13 -6 6
-54 34 -106 62 -53 27 -96 55 -96 62 0 14 28 31 62 37 13 3 24 5 26 7 1 1 5 2
10 4 4 1 20 7 35 13 16 7 33 12 39 12 14 0 81 32 95 46 17 17 7 56 -19 76 -28
21 -114 54 -163 64 -25 4 -39 14 -45 30 -13 32 -71 66 -160 93 -102 31 -99 30
-228 47 -70 10 -302 10 -302 1 0 -4 -8 -4 -17 2 -9 5 -26 6 -37 2 -26 -8 -48
-8 -62 1 -6 4 -14 5 -17 2z"/>
<path d="M3105 2350 c3 -5 11 -10 16 -10 6 0 7 5 4 10 -3 6 -11 10 -16 10 -6
0 -7 -4 -4 -10z"/>
<path d="M3145 2330 c3 -5 11 -10 16 -10 6 0 7 5 4 10 -3 6 -11 10 -16 10 -6
0 -7 -4 -4 -10z"/>
<path d="M3180 2316 c0 -3 15 -12 33 -20 l32 -16 -24 20 c-21 19 -41 26 -41
16z"/>
<path d="M3250 2282 c0 -11 77 -42 85 -34 3 3 -12 14 -32 23 -43 21 -53 23
-53 11z"/>
<path d="M3352 2239 c2 -6 14 -16 27 -20 27 -11 19 6 -11 22 -16 8 -19 8 -16
-2z"/>
<path d="M3452 2195 c9 -10 21 -16 28 -13 7 2 -1 10 -16 17 -27 12 -28 11 -12
-4z"/>
<path d="M3500 2175 c0 -9 91 -48 97 -42 2 3 -5 10 -16 17 -12 6 -21 8 -21 5
0 -3 -13 1 -30 10 -16 9 -30 13 -30 10z"/>
<path d="M3610 2130 c0 -5 5 -10 11 -10 5 0 7 5 4 10 -3 6 -8 10 -11 10 -2 0
-4 -4 -4 -10z"/>
<path d="M3565 2000 c27 -12 43 -12 25 0 -8 5 -22 9 -30 9 -10 0 -8 -3 5 -9z"/>
</g>
</svg>
