<svg width="12" height="12" viewBox="0 0 12 12" fill="none" xmlns="http://www.w3.org/2000/svg">
<path d="M8.00051 8.52488L9.03383 7.49157C9.173 7.35412 9.34909 7.26003 9.5407 7.22072C9.73232 7.18142 9.93123 7.19859 10.1133 7.27014L11.3726 7.77296C11.5566 7.84763 11.7143 7.9751 11.826 8.13928C11.9376 8.30347 11.9982 8.49702 12 8.69556V11.0021C11.9989 11.1371 11.9705 11.2706 11.9165 11.3944C11.8625 11.5182 11.784 11.6298 11.6858 11.7224C11.5875 11.8151 11.4715 11.8869 11.3448 11.9336C11.218 11.9802 11.0831 12.0007 10.9482 11.9939C2.12352 11.4449 0.342894 3.97183 0.00614338 1.11176C-0.00948881 0.971307 0.0047939 0.829139 0.0480519 0.694606C0.0913098 0.560073 0.162563 0.436223 0.257123 0.331204C0.351683 0.226186 0.467407 0.142379 0.596683 0.0852969C0.725958 0.0282149 0.865855 -0.000848408 1.00717 1.8853e-05H3.23526C3.43408 0.000607376 3.62819 0.0606651 3.7926 0.172467C3.95702 0.284269 4.08422 0.442703 4.15786 0.62739L4.66068 1.88674C4.73461 2.06807 4.75347 2.26715 4.71491 2.45913C4.67635 2.65111 4.58208 2.82748 4.44387 2.96619L3.41055 3.99951C3.41055 3.99951 4.00563 8.02668 8.00051 8.52488Z" fill="#666666"/>
</svg>
